<?xml version="1.0" encoding="utf-8"?>
<!-- Generator: Adobe Illustrator 26.3.1, SVG Export Plug-In . SVG Version: 6.00 Build 0)  -->
<svg version="1.1" id="Layer_1" xmlns="http://www.w3.org/2000/svg" xmlns:xlink="http://www.w3.org/1999/xlink" x="0px" y="0px"
	 viewBox="0 0 16 16" style="enable-background:new 0 0 16 16;" xml:space="preserve">
<style type="text/css">
	.st0{fill:#23441C;stroke:#23441C;stroke-width:1.5;stroke-linecap:round;stroke-linejoin:round;stroke-miterlimit:10;}
	.st1{fill:#23441C;}
</style>
<g>
	<g>
		<path class="st0" d="M12.2,5.9"/>
	</g>
	<path class="st1" d="M7.9,8.9c4.2,3.8-0.1,6.4-0.1,6.4C3.7,12,7.9,8.9,7.9,8.9 M7.9,8.4c-0.1,0-0.2,0-0.3,0.1
		C7.5,8.5,5.5,10,5.5,12.2c0,1.3,0.7,2.4,2,3.5c0.1,0.1,0.2,0.1,0.3,0.1c0.1,0,0.2,0,0.3-0.1c0.1,0,2-1.2,2.2-3.1
		c0.1-1.3-0.5-2.7-2-4C8.1,8.4,8,8.4,7.9,8.4L7.9,8.4z"/>
	<g>
		<line class="st1" x1="7.8" y1="15.1" x2="7.8" y2="12.1"/>
		<path class="st1" d="M7.8,15.4c-0.1,0-0.3-0.1-0.3-0.3l0-3c0-0.1,0.1-0.3,0.3-0.3c0,0,0,0,0,0c0.1,0,0.3,0.1,0.3,0.3l0,3
			C8.1,15.3,8,15.4,7.8,15.4C7.8,15.4,7.8,15.4,7.8,15.4z"/>
	</g>
	<path class="st1" d="M7.9,4.2C8,4.2,8,4.3,8.1,4.4l0-1.4c0-0.1-0.1-0.3-0.3-0.3c0,0,0,0,0,0C7.7,2.7,7.6,2.8,7.6,3l0,1.4
		C7.8,4.2,7.9,4.2,7.9,4.2z"/>
	<path class="st1" d="M8.2,0.1C8.2,0,8,0,7.9,0C7.8,0,7.7,0,7.6,0.1C7.5,0.2,5.5,1.7,5.5,3.8c0,0.8,0.3,1.6,0.8,2.3
		c0.1-0.2,0.2-0.3,0.3-0.5C4.8,2.9,7.9,0.5,7.9,0.5c2.4,2.2,2,4,1.2,5.1C9.3,5.8,9.3,6,9.4,6.1c0.4-0.5,0.7-1.2,0.8-1.9
		C10.4,2.8,9.7,1.5,8.2,0.1z"/>
	<path class="st1" d="M8.2,3.8C8.1,3.7,8,3.6,7.9,3.6c-0.1,0-0.2,0-0.3,0.1C7.5,3.8,5.5,5.3,5.5,7.4c0,1,0.4,1.9,1.2,2.7
		C6.8,10,6.9,9.9,7,9.8C4.3,6.8,7.9,4.2,7.9,4.2c2.8,2.6,1.8,4.6,0.8,5.6C8.8,9.9,8.9,10,9,10.2c0.5-0.5,1.1-1.3,1.2-2.4
		C10.4,6.5,9.7,5.1,8.2,3.8z"/>
	<path class="st1" d="M7.9,8.9C7.9,8.9,8,9,8.1,9.1l0-1.8C8.1,7.1,8,7,7.8,7C7.7,7,7.6,7.1,7.6,7.3l0,1.9C7.8,9,7.9,8.9,7.9,8.9z"/>
	<path class="st1" d="M9,1.7c1.2,1.7,0.8,3,0.2,4c0.2,0.2,0.3,0.5,0.4,0.7c0,0,0,0,0,0c1.3-0.7,2.9-0.5,2.9-0.5
		c0.2,3.7-1.9,4.5-3.3,4.5c0,0.1,0.1,0.1,0.1,0.2c0,0,0,0,0,0c0,0.1,0.1,0.1,0.1,0.2c0,0,0,0,0,0c0.1,0.1,0.1,0.2,0.1,0.3
		c1.3-0.7,2.9-0.5,2.9-0.5c0.2,5.1-3.5,4.6-4.4,4.5c-0.1,0.1-0.2,0.1-0.2,0.1c0,0,0,0,0,0c0,0,0,0,0,0c0,0,0,0,0,0c0,0,0,0,0,0
		c0,0,0,0,0,0c0,0-0.1-0.1-0.1-0.1c-4.9,0.4-4.2-4.6-4.2-4.6c1.2-0.1,2.1,0.1,2.8,0.4c0-0.1,0.1-0.2,0.1-0.3c0,0,0,0,0,0
		c0-0.1,0.1-0.2,0.2-0.3C2.8,10,3.4,5.8,3.4,5.8c1.2-0.1,2.1,0.1,2.8,0.4c0,0,0,0,0,0c0-0.1,0-0.1,0.1-0.2c0,0,0,0,0,0
		c0-0.1,0.1-0.2,0.2-0.3c0,0,0,0,0,0c0,0,0.1-0.1,0.1-0.1c-1-1.5-0.5-2.9,0.2-3.9c-3.4,0.6-6,3.5-6,7.1C0.8,12.7,4,16,8,16
		c4,0,7.2-3.2,7.2-7.2C15.2,5.2,12.5,2.1,9,1.7z"/>
</g>
</svg>
