<?xml version="1.0" encoding="utf-8"?>
<!-- Generator: Adobe Illustrator 26.3.1, SVG Export Plug-In . SVG Version: 6.00 Build 0)  -->
<svg version="1.1" id="Layer_1" xmlns="http://www.w3.org/2000/svg" xmlns:xlink="http://www.w3.org/1999/xlink" x="0px" y="0px"
	 viewBox="0 0 31 45" style="enable-background:new 0 0 31 45;" xml:space="preserve">
<style type="text/css">
	.st0{fill:#FCDD09;}
	.st1{fill:#078930;}
	.st2{fill:#DA121A;}
	.st3{fill:#F3F2F2;}
</style>
<g id="layer2_00000178912243580809622960000015431286978074260919_" transform="translate(-175.20293,-85.537913)">
	<g id="g3_00000170242532461884190870000017426679380645836466_" transform="matrix(0.61656949,0,0,0.67105684,176.6734,87.09863)">
		<g id="Wappenkrone_00000066514730510391975380000016658157920937083782_">
			<g>
				<path id="path3986_00000147908573155196247960000015065888614385224635_" class="st0" d="M24.2,0.2c0,0,1-0.3,1.9,0
					c0.2,0.7,0,1.7,0,1.7s1.1-0.1,1.5,0.3c0.2,0.9-0.3,1.7-0.3,1.7s0.8,0.1,1.2,0.6c-0.1,1.1-0.8,1.6-0.8,1.6s0.6,0.7,0.7,1.3
					c-0.4,0.7-1.2,1.1-2.2,1c0,0.3,0,0.7-0.4,1c-0.3,0.3-0.7,0.4-1.2,0.3c-0.2,1.3,1,2.3,2.5,2.5c1.4,0.1,3.1-0.5,3.5-1.8
					c-0.5,0.1-1-0.2-1.2-0.6c-0.2-0.6,0.3-1.3,0.3-1.3c0,0-0.4-0.3-0.7-1.1c0.1-0.9,1-1.5,1-1.5s-0.4-1-0.3-1.6
					c0.5-0.8,1.3-0.8,1.3-0.8s0.2-1.4,0.6-1.7C32.4,1.8,33,2,33,2s0.1-1.3,0.8-1.8c0.7,0,1.3,0.4,1.3,0.4s0.8-1,1.5-0.9
					c0.6,0.4,0.6,1.6,0.6,1.6s0.7,0,1.3,0.4c0.3,0.7-0.5,1.8-0.5,1.8s0.6,0.2,1,0.7c0.1,0.5-0.6,1.7-0.6,1.7s0.7,0.4,0.6,1.4
					c-0.2,0.5-1.2,1.1-1.2,1.1s0.3,1-0.1,1.8c-0.8,0.5-1.3,0.5-1.3,0.5c0,0-0.3,1-1.4,0.8c-0.2,0.4-0.4,1.9,0.9,2.2
					c1.8,0.2,2.3-1.5,2.3-1.5s-0.4-0.9-0.2-2c0.5-0.5,1-0.5,1-0.5S38.7,8.9,39,8.3c0.2-0.2,1.1-0.2,1.1-0.2s0.2-0.9,0.7-1.3
					c0.7,0,1.2,0.3,1.2,0.3s0.5-0.7,1.4-1c0.7,0.3,1.2,0.7,1.2,0.7s1.2-0.3,1.8-0.2c0.7,0.1,1.2,0.6,1.3,1.1
					c-0.8-0.1-1.4,0.2-1.8,0.7c-0.4,0.4-0.6,1.1-1.2,1.6c-0.7,0.7-0.9,0.7-1.6,1c-0.1,0.4-0.2,0.9-0.6,1.3c-0.4,0.4-1.1,0.5-1.7,0.6
					c-0.6,1-1.2,1.9-1.7,2.9c0,0-2.3,5.3-2.3,5.3c-4-1.9-9.6-3-14-2.9c-4.4,0-10,1-14,2.9c0,0-2.3-5.2-2.3-5.3c-0.5-1.1-1-2-1.7-2.9
					c-0.6,0-1.3-0.2-1.7-0.6C2.8,12,2.6,11.4,2.5,11c-0.7-0.3-0.9-0.3-1.6-1C0.3,9.6,0.1,8.9-0.2,8.4c-0.4-0.5-1-0.8-1.8-0.7
					C-2,7.2-1.5,6.7-0.8,6.6C-0.2,6.5,1,6.8,1,6.8s0.5-0.4,1.2-0.7c0.9,0.3,1.4,1,1.4,1s0.5-0.3,1.2-0.3c0.5,0.4,0.7,1.3,0.7,1.3
					s0.9,0,1.1,0.2c0.3,0.6,0.2,1.5,0.2,1.5s0.5,0.1,1,0.5c0.2,1.1-0.2,2-0.2,2s0.6,1.6,2.3,1.5c1.3-0.3,1.1-1.8,0.9-2.2
					c-1.1,0.2-1.4-0.8-1.4-0.8c0,0-0.6,0-1.3-0.5C7.7,9.4,8,8.4,8,8.4S7,7.8,6.8,7.3C6.7,6.3,7.3,5.9,7.3,5.9S6.6,4.7,6.7,4.2
					c0.4-0.6,1-0.7,1-0.7S7,2.4,7.2,1.6c0.6-0.4,1.3-0.4,1.3-0.4s0-1.2,0.6-1.6c0.7-0.1,1.5,0.9,1.5,0.9s0.6-0.4,1.3-0.4
					C12.5,0.7,12.6,2,12.6,2s0.6-0.2,1.3,0.1c0.4,0.3,0.6,1.7,0.6,1.7s0.8,0,1.3,0.8c0.2,0.6-0.3,1.6-0.3,1.6s0.9,0.7,1,1.5
					c-0.3,0.8-0.7,1.1-0.7,1.1c0,0,0.5,0.7,0.3,1.3c-0.2,0.4-0.7,0.7-1.2,0.6c0.4,1.3,2.1,1.9,3.5,1.8c1.5-0.2,2.7-1.2,2.5-2.5
					c-0.5,0.1-0.9,0-1.2-0.3c-0.3-0.3-0.4-0.7-0.4-1c-1,0.1-1.7-0.3-2.2-1c0-0.6,0.7-1.3,0.7-1.3s-0.7-0.5-0.8-1.6
					c0.3-0.5,1.2-0.6,1.2-0.6S17.7,3.1,18,2.2c0.5-0.4,1.5-0.3,1.5-0.3s-0.2-1,0-1.7c0.9-0.4,1.9,0,1.9,0s-0.1-1.5,1.4-2.3
					C24.3-1.3,24.2,0.2,24.2,0.2L24.2,0.2z"/>
				<path d="M36.8,21.3L36.8,21.3l-0.1,0c-3.7-1.8-9.1-2.9-13.9-2.9c-4.8,0-10.2,1.1-13.9,2.9l-0.1,0l-0.1,0c-0.2,0-0.2,0-0.6-1
					c-0.2-0.5-0.5-1.1-0.8-1.8c-0.8-1.9-1.1-2.5-1.1-2.6l0,0c-0.5-1-1-1.8-1.6-2.8C4,13,3.4,12.8,3,12.5c-0.4-0.4-0.6-0.9-0.7-1.3
					c-0.1,0-0.1,0-0.2-0.1c-0.5-0.2-0.8-0.3-1.4-0.9C0.4,9.9,0.2,9.5,0,9.2c-0.1-0.2-0.2-0.4-0.4-0.6C-0.8,8.1-1.4,7.9-2,8l-0.3,0
					l0.1-0.3C-2.2,7-1.6,6.5-0.8,6.4c0.5-0.1,1.4,0.1,1.8,0.2c0.2-0.1,0.6-0.5,1.2-0.7l0.1,0l0.1,0C3,6.1,3.5,6.6,3.7,6.8
					c0.2-0.1,0.6-0.2,1.1-0.2l0.1,0l0.1,0c0.4,0.3,0.7,0.9,0.7,1.3c0.3,0,0.8,0,1,0.2l0,0l0,0c0.3,0.5,0.3,1.1,0.3,1.4
					c0.2,0,0.4,0.1,0.7,0.3c-0.2-0.6-0.1-1.2,0-1.5c-0.3-0.2-1-0.7-1.2-1.2l0,0l0,0C6.5,6.5,6.8,6.1,7,5.9C6.8,5.5,6.4,4.6,6.5,4.2
					l0,0l0,0c0.3-0.4,0.6-0.6,0.8-0.7C7.2,3,6.8,2.2,7,1.6l0-0.1l0.1,0C7.5,1.2,8,1.1,8.3,1c0-0.4,0.2-1.2,0.7-1.5l0.1,0l0.1,0
					c0.6-0.1,1.3,0.5,1.5,0.8C10.9,0.2,11.3,0,11.8,0l0.1,0L12,0c0.6,0.4,0.8,1.3,0.8,1.7c0.3,0,0.7,0,1.1,0.1l0,0l0,0
					c0.4,0.3,0.6,1.2,0.6,1.7C15,3.6,15.6,3.7,16,4.4l0,0l0,0C16.2,4.9,16,5.7,15.8,6c0.3,0.2,0.9,0.8,1,1.5l0,0.1l0,0.1
					c-0.2,0.4-0.4,0.8-0.7,1.1c0.1,0.3,0.4,0.8,0.2,1.3c-0.2,0.4-0.6,0.7-1,0.8c0.5,1,1.9,1.4,3.1,1.3c1.3-0.2,2.3-1,2.3-2.1
					c-0.4,0-0.9-0.1-1.2-0.4c-0.3-0.3-0.4-0.6-0.4-0.9c-0.9,0-1.7-0.4-2.1-1.2l0-0.1l0-0.1c0-0.5,0.4-1,0.6-1.3
					C17.4,6,17,5.4,16.9,4.6l0-0.1l0-0.1c0.3-0.4,0.7-0.6,1-0.7c-0.2-0.3-0.4-1-0.2-1.6l0-0.1l0.1,0c0.4-0.3,1-0.3,1.4-0.3
					c-0.1-0.4-0.1-1,0.1-1.6l0-0.1l0.1,0c0.6-0.3,1.3-0.2,1.7-0.1c0.1-0.5,0.3-1.6,1.5-2.2l0.1-0.1l0.1,0.1c1.2,0.6,1.4,1.7,1.5,2.2
					c0.4-0.1,1.1-0.2,1.7,0.1l0.1,0l0,0.1c0.2,0.5,0.1,1.2,0.1,1.6c0.4,0,1,0,1.4,0.3l0.1,0l0,0.1c0.2,0.7,0,1.3-0.2,1.6
					c0.3,0.1,0.8,0.3,1,0.7l0,0.1l0,0.1C28.6,5.4,28.2,6,28,6.2c0.2,0.3,0.6,0.8,0.6,1.3l0,0.1l0,0.1c-0.4,0.8-1.2,1.2-2.1,1.2
					c0,0.3-0.1,0.6-0.4,0.9c-0.3,0.3-0.8,0.4-1.2,0.4c0,1,1,1.9,2.3,2.1c1.2,0.1,2.6-0.3,3.1-1.3c-0.5-0.1-0.9-0.4-1-0.8
					c-0.2-0.5,0-1.1,0.2-1.3c-0.2-0.2-0.5-0.7-0.7-1.1l0-0.1l0-0.1c0.1-0.7,0.7-1.3,1-1.5c-0.1-0.3-0.4-1.1-0.2-1.6l0,0l0,0
					c0.4-0.6,1-0.8,1.3-0.9c0.1-0.4,0.3-1.4,0.6-1.7l0,0l0,0c0.5-0.2,0.9-0.2,1.1-0.1C32.8,1.3,33,0.4,33.6,0l0.1,0l0.1,0
					c0.5,0,1,0.2,1.2,0.3c0.3-0.3,0.9-0.9,1.5-0.8l0.1,0l0.1,0c0.5,0.3,0.7,1.1,0.7,1.5c0.3,0,0.8,0.1,1.2,0.4l0.1,0l0,0.1
					c0.2,0.6-0.2,1.4-0.4,1.8c0.2,0.1,0.6,0.3,0.8,0.7l0,0l0,0c0.1,0.4-0.3,1.3-0.5,1.7c0.2,0.2,0.6,0.7,0.5,1.4l0,0l0,0
					c-0.2,0.5-0.9,1-1.2,1.2c0.1,0.3,0.2,0.9,0,1.5c0.3-0.2,0.5-0.3,0.7-0.3c0-0.3,0-1,0.3-1.4l0,0l0,0c0.2-0.2,0.7-0.2,1-0.2
					c0.1-0.3,0.3-0.9,0.7-1.3l0.1,0l0.1,0c0.5,0,0.9,0.1,1.1,0.2c0.2-0.2,0.7-0.7,1.4-0.9l0.1,0l0.1,0c0.5,0.2,1,0.5,1.2,0.7
					c0.3-0.1,1.2-0.3,1.8-0.2c0.7,0.1,1.3,0.6,1.5,1.3L48,8l-0.3,0C47,7.9,46.4,8.1,46,8.6c-0.1,0.2-0.3,0.4-0.4,0.6
					c-0.2,0.3-0.4,0.7-0.8,1c-0.7,0.7-0.9,0.8-1.4,0.9c-0.1,0-0.1,0-0.2,0.1c-0.1,0.4-0.3,0.9-0.7,1.3c-0.4,0.3-1,0.6-1.7,0.6
					c-0.6,1-1.1,1.9-1.6,2.8l0,0c-0.1,0.2-0.3,0.7-1.1,2.6c-0.3,0.7-0.6,1.3-0.8,1.8C37,21.3,37,21.3,36.8,21.3z M23.1,18
					c4.7,0,9.9,1.1,13.6,2.8c0.4-0.9,2-4.6,2.2-5v0l0,0c0.5-1,1-1.9,1.7-3l0.1-0.1l0.1,0c0.6,0,1.2-0.2,1.5-0.5
					c0.4-0.3,0.5-0.8,0.6-1.2l0-0.1l0.1,0c0.1,0,0.2-0.1,0.3-0.1c0.5-0.2,0.7-0.2,1.3-0.8l0,0c0.3-0.3,0.5-0.6,0.7-0.9
					c0.1-0.2,0.3-0.5,0.4-0.7c0.4-0.5,1-0.8,1.7-0.8c-0.2-0.3-0.5-0.6-1-0.7l0,0C45.9,6.7,45,6.9,44.6,7l-0.1,0L44.4,7
					c0,0-0.5-0.4-1.1-0.6c-0.8,0.3-1.2,0.9-1.2,0.9L42,7.4l-0.2-0.1c0,0-0.4-0.2-1-0.3c-0.3,0.3-0.5,0.9-0.5,1.1l0,0.2l-0.2,0
					c-0.4,0-0.8,0-0.9,0.1C38.9,9,39,9.8,39,9.8l0,0.2l-0.2,0c0,0-0.4,0.1-0.8,0.4c-0.2,1,0.2,1.8,0.2,1.8l0,0.1l0,0.1
					c0,0-0.6,1.8-2.6,1.6l0,0c-0.5-0.1-0.9-0.4-1.1-0.8c-0.3-0.6-0.2-1.4,0-1.7l0.1-0.1l0.2,0c0.9,0.1,1.1-0.6,1.1-0.7l0-0.1l0.1,0
					c0,0,0.1,0,0.1,0c0.4,0,0.7-0.2,1.1-0.4c0.4-0.7,0.1-1.6,0.1-1.6l0-0.2l0.1-0.1c0.3-0.2,0.9-0.6,1.1-1c0.1-0.7-0.5-1.1-0.5-1.1
					L37.9,6L38,5.8c0.3-0.5,0.6-1.2,0.6-1.5c-0.4-0.5-0.8-0.6-0.8-0.6l-0.3-0.1l0.2-0.2c0.2-0.3,0.6-1.1,0.5-1.6
					c-0.5-0.3-1.1-0.3-1.1-0.3l-0.2,0l0-0.2c0-0.3-0.1-1.1-0.4-1.3c-0.4,0-1,0.6-1.2,0.8l-0.1,0.2l-0.2-0.1c0,0-0.5-0.3-1-0.4
					c-0.4,0.4-0.6,1.2-0.6,1.6l0,0.3l-0.3-0.1c0,0-0.5-0.1-1.1,0.1c-0.2,0.2-0.4,1-0.5,1.5l0,0.2h-0.2c0,0-0.7,0-1.1,0.6
					C29.9,5,30.1,5.7,30.2,6l0.1,0.2l-0.1,0.1c0,0-0.8,0.6-0.9,1.3c0.3,0.7,0.6,0.9,0.6,0.9c0,0-0.2-0.1-0.3,0l0.1,0.1L30,8.6l0,0.2
					l-0.1,0c-0.1,0.2-0.3,0.6-0.2,1.1c0.1,0.3,0.5,0.5,0.9,0.5l0.4-0.1l-0.1,0.3c-0.5,1.4-2.2,2.1-3.7,1.9c-1.7-0.2-2.9-1.4-2.7-2.8
					l0-0.3l0.3,0.1c0.4,0.1,0.7,0,1-0.3c0.3-0.3,0.3-0.6,0.3-0.9V8.3l0.3,0c0.8,0.1,1.5-0.2,1.9-0.9c-0.1-0.5-0.6-1.1-0.6-1.1
					l-0.2-0.2L27.5,6c0,0,0.6-0.5,0.7-1.4c-0.3-0.4-1-0.5-1-0.5l-0.3-0.1l0.2-0.3c0,0,0.5-0.7,0.3-1.5c-0.3-0.2-1-0.2-1.3-0.2
					l-0.3,0l0.1-0.3c0,0,0.2-0.9,0-1.5c-0.7-0.3-1.6,0-1.6,0l-0.3,0.1l0-0.3c0-0.1,0-1.3-1.1-2c-1.2,0.7-1.2,2-1.1,2l0,0.3l-0.3-0.1
					c0,0-0.8-0.3-1.6,0c-0.2,0.6,0,1.5,0,1.5l0.1,0.3l-0.3,0c-0.3,0-0.9,0-1.3,0.2c-0.2,0.8,0.3,1.5,0.3,1.5l0.2,0.3l-0.3,0.1
					c0,0-0.7,0.1-1,0.5C17.5,5.6,18,6,18.1,6l0.2,0.1l-0.2,0.2c0,0-0.5,0.6-0.6,1.1c0.4,0.6,1.1,0.9,1.9,0.9l0.3,0v0.2
					c0,0.3,0,0.6,0.3,0.9c0.3,0.2,0.6,0.3,1,0.2l0.3-0.1l0,0.3c0.2,1.4-1,2.6-2.7,2.8c-1.5,0.1-3.3-0.5-3.8-1.9l-0.1-0.3l0.4,0.1
					c0.4,0.1,0.8-0.2,0.9-0.5c0.1-0.4-0.1-0.9-0.2-1.1l-0.1,0l0-0.2l0.3-0.1L16,8.5c-0.1-0.1-0.2,0-0.3,0c0,0,0.3-0.3,0.6-0.9
					c-0.1-0.7-0.9-1.3-0.9-1.3l-0.1-0.1L15.3,6c0.1-0.3,0.4-1,0.3-1.4c-0.4-0.6-1.1-0.6-1.1-0.6l-0.2,0l0-0.2
					c-0.1-0.5-0.3-1.3-0.5-1.5c-0.6-0.2-1.1-0.1-1.1-0.1l-0.3,0.1l0-0.3c0-0.3-0.2-1.2-0.6-1.6c-0.6,0-1,0.4-1,0.4l-0.2,0.1
					l-0.1-0.2c-0.2-0.2-0.8-0.8-1.2-0.8C8.9,0.2,8.8,1,8.8,1.3l0,0.2l-0.2,0l0,0c0,0-0.6,0-1.1,0.3C7.3,2.3,7.7,3.1,7.9,3.4l0.2,0.2
					L7.8,3.7c0,0-0.5,0.2-0.8,0.6c0,0.3,0.3,1,0.6,1.5L7.7,6L7.5,6.1c0,0-0.5,0.4-0.5,1.1c0.2,0.4,0.9,0.9,1.1,1l0.1,0.1l0,0.2
					c0,0-0.3,0.9,0.1,1.6c0.4,0.2,0.8,0.4,1.1,0.4c0,0,0.1,0,0.1,0l0.1,0l0,0.1c0,0.1,0.3,0.8,1.1,0.7l0.2,0l0.1,0.1
					c0.2,0.3,0.3,1.1,0,1.7c-0.2,0.4-0.6,0.7-1.1,0.8l0,0c-1.9,0.2-2.6-1.6-2.6-1.6l0-0.1l0-0.1c0,0,0.3-0.8,0.2-1.8
					C7.2,10.1,6.8,10,6.8,10l-0.2,0l0-0.2c0,0,0.1-0.8-0.2-1.3C6.3,8.4,5.9,8.3,5.5,8.3l-0.2,0l0-0.2C5.2,7.9,5,7.3,4.7,7
					c-0.6,0-1,0.3-1,0.3L3.5,7.4L3.4,7.2c0,0-0.4-0.6-1.2-0.9C1.6,6.6,1.2,7,1.2,7L1.1,7.1L0.9,7C0.6,6.9-0.3,6.7-0.7,6.8l0,0
					c-0.5,0.1-0.8,0.4-1,0.7c0.7,0,1.2,0.3,1.7,0.8c0.2,0.2,0.3,0.4,0.4,0.6c0.2,0.3,0.4,0.7,0.7,0.9l0,0c0.6,0.6,0.8,0.7,1.3,0.8
					c0.1,0,0.2,0.1,0.3,0.1l0.1,0l0,0.1c0.1,0.4,0.2,0.9,0.6,1.2c0.3,0.3,0.9,0.5,1.5,0.5l0.1,0l0.1,0.1c0.7,1,1.2,1.9,1.7,3l0,0.1
					c0.2,0.4,1.8,4.1,2.2,5c3.7-1.8,9.1-2.9,13.9-2.8C22.9,18,23,18,23.1,18z M7.9,12.3c0.1,0.3,0.7,1.4,2,1.2
					c0.3-0.1,0.6-0.3,0.7-0.6c0.2-0.4,0.1-0.9,0-1.2c-0.8,0-1.3-0.5-1.4-0.9c-0.4-0.1-0.8-0.2-1.2-0.4C8.3,11.3,8,12.1,7.9,12.3z
					 M35.6,13.6c1.4,0.1,1.9-0.9,2-1.2c-0.1-0.2-0.3-1-0.2-1.9c-0.4,0.2-0.8,0.4-1.2,0.4c-0.2,0.4-0.6,0.9-1.4,0.9
					c-0.1,0.3-0.2,0.8,0,1.2C35,13.3,35.3,13.5,35.6,13.6z"/>
			</g>
			<g>
				<path id="Reif_00000078740002787984642490000011364760017005864325_" class="st0" d="M7.7,22.1c-0.3,0.1-0.7-0.1-0.8-0.3
					c-0.1-0.3,0-0.6,0.3-0.8c4.5-1.9,10.5-3.1,15.5-3.1s11.1,1.1,15.5,3.1c0.4,0.2,0.4,0.5,0.3,0.8c-0.1,0.3-0.5,0.5-0.8,0.3
					c-4.4-1.9-9.8-3-15.1-3S12.2,20.3,7.7,22.1z"/>
				<path d="M7.5,22.4c-0.1,0-0.2,0-0.3-0.1c-0.2-0.1-0.4-0.3-0.5-0.5c-0.2-0.4-0.1-0.9,0.4-1.1c4.4-1.9,10.4-3.1,15.7-3.1
					s11.3,1.2,15.7,3.1c0.5,0.2,0.6,0.7,0.4,1.1c-0.1,0.2-0.3,0.4-0.5,0.5c-0.2,0.1-0.4,0.1-0.6,0c-4.5-1.9-9.8-2.9-15-2.9
					s-10.5,1-15,2.9l0,0C7.7,22.4,7.6,22.4,7.5,22.4z M22.8,19c5.3,0,10.6,1.1,15.2,3c0.1,0,0.2,0,0.3,0c0.1,0,0.2-0.1,0.2-0.2
					c0.1-0.2,0-0.4-0.2-0.5c-4.3-1.9-10.2-3-15.4-3s-11.1,1.2-15.4,3c-0.2,0.1-0.3,0.3-0.2,0.5c0,0.1,0.1,0.2,0.2,0.2
					c0.1,0,0.2,0,0.3,0C12.1,20,17.5,19,22.8,19z"/>
			</g>
			<g>
				<path id="Smaragde_00000072252833881173757310000007634913309149468085_" class="st1" d="M11.3,5.3c-0.1,0-0.1,0-0.2,0.1
					c-0.6,0.3-0.7,1.1-0.4,1.9c0.4,0.8,1.1,1.2,1.7,1C12.9,8,13,7.2,12.7,6.4C12.5,5.8,11.8,5.3,11.3,5.3z M34.2,5.3
					c-0.5,0-1.1,0.5-1.3,1.1c-0.3,0.8-0.2,1.6,0.3,1.9c0.6,0.2,1.3-0.3,1.7-1c0.3-0.8,0.3-1.7-0.4-1.9C34.4,5.3,34.3,5.3,34.2,5.3z"
					/>
				<path d="M33.5,8.5c-0.1,0-0.2,0-0.4-0.1l0,0c-0.6-0.3-0.8-1.1-0.4-2c0.3-0.7,0.9-1.2,1.4-1.2h0c0.1,0,0.3,0,0.4,0.1
					c0.7,0.3,0.8,1.3,0.4,2.1C34.6,8.1,34.1,8.5,33.5,8.5z M33.3,8.2c0.5,0.2,1.1-0.2,1.5-1C35,6.5,35,5.7,34.5,5.5
					c-0.1,0-0.2-0.1-0.3,0l0,0c-0.4,0-1,0.5-1.2,1.1C32.7,7.3,32.8,8,33.3,8.2z M12.1,8.5c-0.5,0-1.1-0.4-1.5-1.1
					c-0.3-0.8-0.3-1.8,0.4-2.1c0.1,0,0.2-0.1,0.3-0.1l0,0c0.6-0.1,1.3,0.5,1.6,1.2c0.3,0.9,0.2,1.7-0.4,2l0,0
					C12.3,8.5,12.2,8.5,12.1,8.5z M11.3,5.4L11.3,5.4c-0.1,0-0.1,0-0.2,0c-0.6,0.2-0.6,1.1-0.3,1.8c0.4,0.7,1,1.1,1.5,1
					c0.5-0.2,0.6-1,0.3-1.7C12.3,5.9,11.8,5.4,11.3,5.4z"/>
			</g>
			<g>
				<path id="Rubine_00000107571850286166279380000015113925963004378504_" class="st2" d="M22.8,3.9C22,4,21.6,4.9,21.6,5.6
					c0,0.8,0.6,1.6,1.2,1.6c0.7,0,1.2-0.8,1.2-1.6C24,4.9,23.6,4,22.8,3.9z M3.6,10.6c-0.4,0-0.7,0.1-1.1,0.3c0,0.4,0.2,1,0.6,1.5
					c0.5,0.4,1.2,0.5,1.6,0.5c0.3-0.3,0.4-1.3-0.2-1.9C4.3,10.7,4,10.6,3.6,10.6z M42,10.6c-0.4,0-0.7,0.1-1,0.4
					c-0.6,0.6-0.5,1.6-0.2,1.9c0.5,0,1.2-0.1,1.6-0.5c0.4-0.4,0.6-1,0.6-1.5C42.7,10.7,42.3,10.6,42,10.6z"/>
				<path d="M40.7,12.9L40.7,12.9c-0.2-0.2-0.3-0.5-0.3-0.8c0-0.5,0.2-0.9,0.5-1.2c0.3-0.3,0.7-0.4,1.1-0.4c0.4,0,0.8,0.1,1.1,0.3
					l0.1,0l0,0.1c0,0.4-0.2,1.1-0.7,1.5C42.1,12.7,41.5,12.9,40.7,12.9L40.7,12.9z M42,10.7C42,10.7,42,10.7,42,10.7
					c-0.3,0-0.6,0.1-0.9,0.3c-0.3,0.3-0.4,0.7-0.4,1.1c0,0.3,0.1,0.5,0.2,0.6c0.7-0.1,1.2-0.2,1.5-0.5c0.4-0.4,0.5-0.9,0.6-1.3
					C42.6,10.8,42.3,10.7,42,10.7z M4.9,12.9L4.9,12.9c-0.8-0.1-1.4-0.2-1.7-0.5c-0.5-0.5-0.6-1.1-0.7-1.5l0-0.1l0.1,0
					c0.3-0.2,0.7-0.3,1.1-0.3c0,0,0,0,0,0c0.4,0,0.8,0.1,1.1,0.4c0.3,0.3,0.5,0.8,0.5,1.2C5.2,12.4,5.1,12.8,4.9,12.9L4.9,12.9z
					 M2.7,10.9c0,0.3,0.2,0.9,0.6,1.3c0.3,0.2,0.8,0.4,1.5,0.5c0.1-0.1,0.2-0.3,0.2-0.6c0-0.4-0.1-0.8-0.4-1.1
					c-0.2-0.2-0.5-0.3-0.9-0.3C3.3,10.7,3,10.8,2.7,10.9z M22.8,7.4c-0.8,0-1.3-0.9-1.4-1.7c0-0.9,0.4-1.8,1.3-1.9l0,0l0,0
					c0.9,0.1,1.3,1,1.3,1.8C24.1,6.4,23.5,7.3,22.8,7.4z M22.8,4c-0.7,0.1-1.1,0.9-1.1,1.6c0,0.7,0.5,1.5,1.1,1.5
					c0.5,0,1.1-0.7,1.1-1.5C23.9,4.9,23.5,4.1,22.8,4z"/>
			</g>
			<path id="path4010_00000156579170693684207720000017936863964811405952_" d="M22.7,8.6l0.1,0.1l0.1-0.1l0.6-1l-0.8,0.6L22,7.6
				L22.7,8.6z M12.5,9.7l0.2,0.1l0.1-0.2L13,8.5l-0.4,0.8l-0.9-0.5L12.5,9.7z M33.1,9.3l-0.4-0.8l0.2,1.1l0.1,0.2l0.2-0.1l0.9-0.8
				L33.1,9.3z"/>
			<path d="M11.8,13.4L12,13c0.3-0.8,0.7-2.2,0.7-2.2l0.1-0.4l0.3,0.3c0,0,1.1,1.1,1.8,1.6l0.4,0.2L11.8,13.4z M13,11.3
				c-0.1,0.4-0.3,1-0.5,1.6l1.7-0.4C13.8,12.1,13.3,11.6,13,11.3z"/>
			<g>
				<path id="Smaragde__x28_Kronreif_x29__00000088093009026224106730000003945919281263661748_" class="st1" d="M22.8,14.2l-2,1.8
					l2,1.9l2-1.9L22.8,14.2z M14.8,14.9l-1.6,2.2l2.2,1.5l1.6-2.2L14.8,14.9z M30.8,14.9l-2.2,1.5l1.6,2.2l2.2-1.5L30.8,14.9z M7,17
					l-0.9,2.5l2.3,0.9l1.2-2.3L7,17z M38.5,17l-2.7,1l1.2,2.3l2.3-0.9L38.5,17z"/>
				<path d="M37,20.5L35.7,18l2.9-1.1l1,2.7L37,20.5z M36.1,18.1l1.1,2.1l2.1-0.8l-0.8-2.2L36.1,18.1z M8.5,20.5l-2.6-1l1-2.7
					L9.9,18L8.5,20.5z M6.3,19.4l2.1,0.8l1.1-2.1l-2.4-0.9L6.3,19.4z M15.4,18.8L13,17.2l1.7-2.4l2.4,1.7L15.4,18.8z M13.4,17.1
					l2,1.4l1.5-2l-2-1.4L13.4,17.1z M30.1,18.8l-1.7-2.4l2.4-1.7l1.7,2.4L30.1,18.8z M28.8,16.5l1.4,2l2-1.4l-1.5-2L28.8,16.5z
					 M22.8,18.1l-2.2-2l2.2-2l2.2,2L22.8,18.1z M21,16.1l1.8,1.7l1.8-1.7l-1.8-1.7L21,16.1z"/>
			</g>
			<g>
				<path id="Rubine__x28_Kronreif_x29__00000112621527390522924330000015297192649380128675_" class="st2" d="M18.8,15.4
					c-0.5,0-0.9,0.4-0.9,0.9c0,0.5,0.4,0.9,0.9,0.9c0.5,0,0.9-0.4,0.9-0.9C19.7,15.8,19.3,15.4,18.8,15.4z M26.8,15.4
					c-0.5,0-0.9,0.4-0.9,0.9c0,0.5,0.4,0.9,0.9,0.9c0.5,0,0.9-0.4,0.9-0.9C27.7,15.8,27.3,15.4,26.8,15.4z M11.3,16.8
					c-0.5,0-0.9,0.4-0.9,0.9c0,0.5,0.4,0.9,0.9,0.9c0.5,0,0.9-0.4,0.9-0.9C12.2,17.1,11.8,16.8,11.3,16.8z M34.3,16.8
					c-0.5,0-0.9,0.4-0.9,0.9c0,0.5,0.4,0.9,0.9,0.9c0.5,0,0.9-0.4,0.9-0.9C35.2,17.1,34.8,16.8,34.3,16.8z"/>
				<path d="M34.3,18.6c-0.6,0-1-0.4-1-1s0.5-1,1-1c0.6,0,1,0.4,1,1S34.8,18.6,34.3,18.6z M34.3,16.9c-0.4,0-0.8,0.3-0.8,0.7
					c0,0.4,0.3,0.7,0.8,0.7c0.4,0,0.8-0.3,0.8-0.7C35,17.2,34.7,16.9,34.3,16.9z M11.3,18.6c-0.6,0-1-0.4-1-1s0.5-1,1-1
					c0.6,0,1,0.4,1,1S11.9,18.6,11.3,18.6z M11.3,16.9c-0.4,0-0.8,0.3-0.8,0.7c0,0.4,0.3,0.7,0.8,0.7c0.4,0,0.8-0.3,0.8-0.7
					C12.1,17.2,11.7,16.9,11.3,16.9z M26.8,17.2c-0.6,0-1-0.4-1-1c0-0.5,0.5-1,1-1c0.6,0,1,0.4,1,1C27.8,16.8,27.4,17.2,26.8,17.2z
					 M26.8,15.5c-0.4,0-0.8,0.3-0.8,0.7c0,0.4,0.3,0.7,0.8,0.7s0.8-0.3,0.8-0.7C27.6,15.9,27.2,15.5,26.8,15.5z M18.8,17.2
					c-0.6,0-1-0.4-1-1c0-0.5,0.5-1,1-1c0.6,0,1,0.4,1,1C19.8,16.8,19.3,17.2,18.8,17.2z M18.8,15.5c-0.4,0-0.8,0.3-0.8,0.7
					c0,0.4,0.3,0.7,0.8,0.7c0.4,0,0.8-0.3,0.8-0.7C19.5,15.9,19.2,15.5,18.8,15.5z"/>
			</g>
			<g>
				<path id="path3988_00000073710666018076179220000014531148608668454063_" class="st0" d="M39.9,16.1c0.3,0.1,0.4,0.5,0.3,0.8
					c-0.1,0.3-0.4,0.4-0.7,0.3c-5.7-2.1-11.2-3-16.7-3s-11.1,0.9-16.7,3c-0.3,0.1-0.6-0.1-0.7-0.3c-0.1-0.3,0-0.7,0.3-0.8
					c5.7-2.1,11.3-3.2,17.1-3.2S34.2,14,39.9,16.1z"/>
				<path d="M39.7,17.5c-0.1,0-0.2,0-0.3,0c-5.5-2-11-3-16.6-3s-11.1,1-16.6,3c-0.2,0.1-0.4,0.1-0.6,0c-0.2-0.1-0.3-0.2-0.4-0.4
					c-0.1-0.2-0.1-0.5,0-0.7c0.1-0.2,0.2-0.3,0.5-0.4c5.7-2.1,11.3-3.2,17.2-3.2c5.9,0,11.5,1,17.2,3.2c0.2,0.1,0.4,0.2,0.4,0.4
					c0.1,0.2,0.1,0.5,0,0.7c-0.1,0.2-0.2,0.3-0.4,0.4C39.9,17.4,39.8,17.5,39.7,17.5z M22.8,14c5.7,0,11.2,1,16.8,3
					c0.1,0,0.2,0,0.2,0c0.1,0,0.1-0.1,0.2-0.2l0,0c0.1-0.1,0.1-0.2,0-0.3c0-0.1-0.1-0.1-0.2-0.2l0,0c-5.6-2.1-11.2-3.1-17-3.1
					s-11.4,1-17,3.1c-0.1,0-0.1,0.1-0.2,0.2c0,0.1,0,0.2,0,0.3l0,0c0,0.1,0.1,0.1,0.2,0.2c0,0,0.1,0,0.2,0C11.6,15,17.1,14,22.8,14z
					"/>
			</g>
			<path d="M33.8,13.4l-3.3-0.7l0.4-0.2c0.7-0.5,1.8-1.6,1.8-1.6l0.3-0.3l0.1,0.4c0,0,0.3,1.4,0.7,2.2L33.8,13.4z M31.4,12.5
				l1.7,0.4c-0.2-0.5-0.4-1.2-0.5-1.6C32.3,11.6,31.8,12.1,31.4,12.5z"/>
			<path d="M24.7,12h-3.8l0.3-0.3c0.6-0.6,1.4-2,1.4-2l0.2-0.3L23,9.7c0,0,0.8,1.3,1.4,2L24.7,12z M21.8,11.6h2.1
				c-0.4-0.5-0.8-1.1-1-1.4C22.6,10.5,22.2,11.1,21.8,11.6z"/>
			<path d="M36.4,14.2c-0.3,0-0.6-0.1-0.9-0.2c0,0,0,0,0,0c-0.8-0.4-0.9-0.6-1.3-1c-0.5-0.7-0.7-1.2-0.7-2c0-1,0.6-1.7,1.4-1.7
				c0,0,0,0,0,0c0.4,0,0.8,0.2,1,0.4c0.2,0.3,0.3,0.7,0.2,1c-0.1,0.4-0.4,0.7-0.7,0.8c-0.3,0.1-0.6,0.1-0.8,0
				c-0.5-0.2-0.6-0.7-0.4-1c0.1-0.3,0.5-0.5,0.8-0.4c0.1,0,0.2,0.1,0.1,0.2c0,0.1-0.2,0.1-0.3,0.1c-0.1,0-0.2,0.1-0.3,0.2
				c-0.1,0.1-0.1,0.4,0.2,0.5c0.2,0.1,0.4,0.1,0.5,0c0.2-0.1,0.4-0.3,0.5-0.6c0.1-0.2,0-0.5-0.2-0.7c-0.1-0.1-0.3-0.3-0.7-0.3
				c-0.6,0-1,0.6-1,1.4c0,0.7,0.2,1.1,0.6,1.7c0.3,0.3,0.4,0.5,1.1,0.8c0.5,0.2,1.2,0.2,1.8-0.1c0.5-0.2,0.9-0.6,1.2-1.1
				c-0.2,0.1-0.5,0.1-0.7,0.1c-0.1,0-0.2-0.1-0.2-0.2c0-0.1,0.1-0.2,0.2-0.2c0.3,0.1,0.6,0,0.9-0.3c0.1-0.1,0.2-0.1,0.2,0
				c0.1,0,0.1,0.1,0.1,0.2c-0.2,0.8-0.8,1.4-1.6,1.8C37.2,14.1,36.8,14.2,36.4,14.2z M9.2,14.2c-0.4,0-0.8-0.1-1.2-0.3
				c-0.8-0.4-1.4-1-1.6-1.8c0-0.1,0-0.2,0.1-0.2c0.1,0,0.2,0,0.2,0c0.3,0.2,0.6,0.3,0.9,0.3c0.1,0,0.2,0.1,0.2,0.2
				c0,0.1-0.1,0.2-0.2,0.2c-0.3,0-0.5,0-0.8-0.1c0.2,0.5,0.7,0.8,1.2,1.1c0.6,0.3,1.2,0.3,1.8,0.1c0.7-0.4,0.8-0.5,1.1-0.8
				c0.4-0.6,0.6-1,0.6-1.7c0-0.8-0.4-1.3-1.1-1.4c-0.3,0-0.5,0.2-0.6,0.3c-0.2,0.2-0.2,0.5-0.2,0.7c0.1,0.3,0.3,0.5,0.5,0.6
				c0.2,0.1,0.3,0.1,0.5,0c0.3-0.1,0.2-0.4,0.2-0.5c0-0.1-0.1-0.2-0.3-0.2c-0.1,0-0.2,0-0.3-0.1c0-0.1,0-0.2,0.1-0.2
				c0.3-0.1,0.6,0.1,0.8,0.4c0.2,0.4,0.1,0.8-0.4,1c-0.3,0.1-0.6,0.1-0.9,0c-0.3-0.1-0.5-0.4-0.7-0.8c-0.1-0.3,0-0.7,0.2-1
				c0.2-0.3,0.6-0.4,1-0.4c0.9,0,1.5,0.7,1.5,1.7c0,0.8-0.2,1.3-0.7,1.9c-0.3,0.4-0.5,0.6-1.3,1c0,0,0,0,0,0
				C9.8,14.1,9.5,14.2,9.2,14.2z M27.8,12.7c-0.2,0-0.4,0-0.6,0c-1.2-0.1-1.9-0.7-2.5-1.3c-0.6-0.7-1.2-1.8-1-2.6
				c0.1-0.5,0.4-0.9,0.8-1c0.4-0.2,0.9-0.1,1.3,0.1c0.3,0.2,0.5,0.5,0.6,0.9c0,0.4-0.1,0.8-0.4,1c-0.4,0.3-1.1,0.5-1.5,0.1
				c-0.3-0.3-0.3-0.7-0.2-1c0.1-0.1,0.3-0.4,0.9-0.3c0.1,0,0.2,0.1,0.1,0.2c0,0.1-0.1,0.2-0.2,0.1c-0.1,0-0.3-0.1-0.4,0.1
				c-0.1,0.2-0.1,0.4,0.1,0.6c0.2,0.2,0.7,0.1,0.9-0.1c0.2-0.2,0.3-0.5,0.3-0.7c0-0.2-0.1-0.4-0.4-0.6c-0.3-0.2-0.6-0.2-0.9-0.1
				c-0.3,0.1-0.5,0.4-0.6,0.8c-0.1,0.7,0.4,1.7,0.9,2.3c0.5,0.5,1.2,1.1,2.3,1.2c1.8,0.1,3.1-0.3,3.9-1.3c0.7-0.9,0.6-1.7,0.2-2.1
				c-0.4-0.3-0.8-0.3-1.2-0.1c-0.2,0.1-0.4,0.4-0.5,0.7c0,0.3,0.1,0.5,0.3,0.7c0.2,0.2,0.5,0.2,0.7,0.1c0.2-0.1,0.3-0.3,0.3-0.5
				c0-0.1-0.1-0.2-0.2-0.3c-0.1,0-0.2,0-0.3,0.1c-0.1,0.1-0.2,0.1-0.3,0c-0.1-0.1-0.1-0.2,0-0.3c0.2-0.2,0.5-0.2,0.7-0.2
				c0.3,0.1,0.4,0.3,0.5,0.6c0,0.4-0.2,0.7-0.6,0.9c-0.4,0.2-0.9,0.1-1.2-0.2c-0.3-0.3-0.4-0.6-0.4-1c0.1-0.5,0.4-0.8,0.6-1
				c0,0,0,0,0,0c0.6-0.3,1.2-0.3,1.7,0.1c0,0,0,0,0,0c0.5,0.5,0.7,1.6-0.1,2.6C30.7,12.2,29.5,12.7,27.8,12.7z M17.8,12.7
				c-1.7,0-2.9-0.5-3.7-1.4c-0.8-1.1-0.6-2.1-0.1-2.6c0,0,0,0,0,0c0.5-0.4,1.1-0.5,1.7-0.1c0,0,0,0,0,0c0.3,0.2,0.6,0.6,0.6,1
				c0,0.4-0.1,0.7-0.4,1c-0.3,0.3-0.8,0.4-1.2,0.2c-0.4-0.2-0.6-0.5-0.6-0.8c0-0.3,0.2-0.5,0.5-0.6c0.3-0.1,0.5,0,0.7,0.2
				c0.1,0.1,0.1,0.2,0,0.3c-0.1,0.1-0.2,0.1-0.3,0c-0.1-0.1-0.2-0.1-0.3-0.1c-0.1,0-0.2,0.1-0.2,0.3c0,0.2,0.1,0.4,0.3,0.5
				c0.2,0.1,0.5,0.1,0.7-0.1C15.9,10,16,9.8,16,9.5c0-0.3-0.3-0.6-0.5-0.7c-0.5-0.2-0.9-0.2-1.2,0.1c-0.4,0.4-0.5,1.3,0.2,2.1
				c0.8,0.9,2.1,1.4,3.9,1.3c1.1-0.1,1.7-0.6,2.3-1.2c0.5-0.6,1-1.7,0.9-2.3C21.5,8.4,21.3,8.2,21,8c-0.3-0.1-0.6-0.1-0.9,0.1
				c-0.3,0.2-0.3,0.4-0.4,0.6c0,0.3,0.1,0.6,0.3,0.8c0.2,0.2,0.7,0.3,0.9,0.1C21,9.4,21.1,9.1,21,9c-0.1-0.1-0.3-0.1-0.4-0.1
				c-0.1,0-0.2,0-0.2-0.1c0-0.1,0-0.2,0.1-0.2c0.6-0.1,0.8,0.1,0.9,0.3c0.2,0.3,0.1,0.7-0.1,1c-0.4,0.4-1.1,0.3-1.5-0.1
				c-0.3-0.3-0.4-0.7-0.4-1.1c0-0.4,0.2-0.7,0.5-0.9c0.4-0.2,0.9-0.3,1.3-0.1c0.4,0.2,0.7,0.6,0.8,1c0.1,0.8-0.4,2-1,2.6
				c-0.6,0.6-1.3,1.2-2.5,1.3C18.2,12.7,18,12.7,17.8,12.7z"/>
			<path d="M39.4,12.4c-0.1,0-0.1,0-0.2-0.1c0-0.1,0-0.2,0.1-0.2l1.1-0.2c0.1,0,0.2,0,0.2,0.1c0,0.1,0,0.2-0.1,0.2L39.4,12.4
				C39.4,12.4,39.4,12.4,39.4,12.4z M6.2,12.4C6.2,12.4,6.2,12.4,6.2,12.4l-1.2-0.2c-0.1,0-0.1-0.1-0.1-0.2c0-0.1,0.1-0.1,0.2-0.1
				l1.1,0.2c0.1,0,0.1,0.1,0.1,0.2C6.4,12.3,6.3,12.4,6.2,12.4z M40.7,11.5C40.7,11.5,40.7,11.5,40.7,11.5l-0.8-0.2
				c-0.1,0-0.1-0.1-0.1-0.2c0-0.1,0.1-0.1,0.2-0.1l0.7,0.2c0.1,0,0.1,0.1,0.1,0.2C40.8,11.5,40.8,11.5,40.7,11.5z M4.9,11.5
				c-0.1,0-0.1,0-0.2-0.1c0-0.1,0-0.2,0.1-0.2l0.7-0.2c0.1,0,0.2,0,0.2,0.1s0,0.2-0.1,0.2L4.9,11.5C4.9,11.5,4.9,11.5,4.9,11.5z
				 M41,11.1c-0.1,0-0.1,0-0.1-0.1l-0.5-0.7c0-0.1,0-0.2,0-0.2c0.1,0,0.2,0,0.2,0l0.5,0.7C41.2,10.9,41.2,11,41,11.1
				C41.1,11,41,11.1,41,11.1z M4.6,11.1C4.5,11.1,4.5,11,4.6,11.1c-0.2-0.1-0.2-0.2-0.1-0.2L5,10.1c0-0.1,0.2-0.1,0.2,0
				c0.1,0,0.1,0.1,0,0.2L4.7,11C4.7,11,4.6,11.1,4.6,11.1z M42.8,10.9C42.8,10.9,42.8,10.9,42.8,10.9c-0.1,0-0.2-0.1-0.2-0.2
				l0.7-1.8c0-0.1,0.1-0.1,0.2-0.1c0.1,0,0.1,0.1,0.1,0.2L43,10.8C42.9,10.8,42.9,10.9,42.8,10.9z M2.8,10.9c-0.1,0-0.1,0-0.2-0.1
				L1.9,8.9c0-0.1,0-0.2,0.1-0.2c0.1,0,0.2,0,0.2,0.1l0.7,1.8C3,10.7,2.9,10.8,2.8,10.9C2.8,10.9,2.8,10.9,2.8,10.9z M41.5,10.8
				c-0.1,0-0.2-0.1-0.2-0.1l-0.1-1.1c0-0.1,0.1-0.2,0.1-0.2c0.1,0,0.2,0.1,0.2,0.1l0.1,1.1C41.6,10.7,41.6,10.8,41.5,10.8
				C41.5,10.8,41.5,10.8,41.5,10.8z M4.1,10.8C4.1,10.8,4.1,10.8,4.1,10.8c-0.1,0-0.2-0.1-0.2-0.2l0.1-1.1c0-0.1,0.1-0.1,0.2-0.1
				c0.1,0,0.2,0.1,0.1,0.2l-0.1,1.1C4.3,10.7,4.2,10.8,4.1,10.8z M42.1,10.7C42.1,10.7,42.1,10.7,42.1,10.7c-0.1,0-0.2-0.1-0.2-0.2
				l0.4-1.9c0-0.1,0.1-0.1,0.2-0.1c0.1,0,0.1,0.1,0.1,0.2l-0.4,1.9C42.2,10.7,42.2,10.7,42.1,10.7z M3.5,10.7c-0.1,0-0.1,0-0.2-0.1
				L2.9,8.7c0-0.1,0-0.2,0.1-0.2c0.1,0,0.2,0,0.2,0.1l0.4,1.9C3.7,10.6,3.6,10.7,3.5,10.7C3.5,10.7,3.5,10.7,3.5,10.7z M35.3,9.1
				c0,0-0.1,0-0.1,0l-0.9-0.9c-0.1-0.1-0.1-0.2,0-0.2c0.1-0.1,0.2-0.1,0.2,0l0.9,0.9c0.1,0.1,0.1,0.2,0,0.2
				C35.4,9,35.4,9.1,35.3,9.1z M10.3,9.1c0,0-0.1,0-0.1,0c-0.1-0.1-0.1-0.2,0-0.2l0.9-0.9c0.1-0.1,0.2-0.1,0.2,0
				c0.1,0.1,0.1,0.2,0,0.2L10.4,9C10.4,9,10.3,9.1,10.3,9.1z M36,8.3C35.9,8.3,35.9,8.3,36,8.3l-1.2-0.8c-0.1,0-0.1-0.1,0-0.2
				c0.1-0.1,0.2-0.1,0.2,0L36.1,8c0.1,0,0.1,0.1,0,0.2C36.1,8.2,36,8.3,36,8.3z M9.6,8.3c-0.1,0-0.1,0-0.1-0.1C9.4,8.1,9.5,8,9.5,8
				l1.1-0.7c0.1,0,0.2,0,0.2,0c0.1,0.1,0,0.2,0,0.2L9.6,8.3C9.7,8.3,9.7,8.3,9.6,8.3z M31.2,8.2c-0.1,0-0.1,0-0.2-0.1
				c0-0.1,0-0.2,0.1-0.2l1.5-0.5c0.1,0,0.2,0,0.2,0.1s0,0.2-0.1,0.2L31.2,8.2C31.2,8.2,31.2,8.2,31.2,8.2z M14.4,8.2
				C14.4,8.2,14.4,8.2,14.4,8.2l-1.5-0.5c-0.1,0-0.1-0.1-0.1-0.2c0-0.1,0.1-0.1,0.2-0.1l1.5,0.5c0.1,0,0.1,0.1,0.1,0.2
				C14.5,8.1,14.5,8.2,14.4,8.2z M36.2,7.3C36.2,7.3,36.2,7.3,36.2,7.3L35,7.2c-0.1,0-0.2-0.1-0.1-0.2c0-0.1,0.1-0.1,0.2-0.1L36.2,7
				c0.1,0,0.2,0.1,0.1,0.2C36.3,7.3,36.3,7.3,36.2,7.3z M9.4,7.3c-0.1,0-0.2-0.1-0.2-0.1C9.2,7.1,9.3,7,9.4,7l1.2-0.1
				c0.1,0,0.2,0.1,0.2,0.1c0,0.1-0.1,0.2-0.1,0.2L9.4,7.3C9.4,7.3,9.4,7.3,9.4,7.3z M24.5,7.2c0,0-0.1,0-0.1,0l-0.7-0.5
				c-0.1-0.1-0.1-0.1,0-0.2c0.1-0.1,0.2-0.1,0.2,0L24.6,7c0.1,0.1,0.1,0.1,0,0.2C24.6,7.2,24.6,7.2,24.5,7.2z M21.1,7.2
				c0,0-0.1,0-0.1-0.1c-0.1-0.1,0-0.2,0-0.2l0.7-0.5c0.1-0.1,0.2,0,0.2,0c0.1,0.1,0,0.2,0,0.2l-0.7,0.5C21.1,7.2,21.1,7.2,21.1,7.2z
				 M31,7.2c-0.1,0-0.2-0.1-0.2-0.1c0-0.1,0.1-0.2,0.2-0.2l1.7,0c0,0,0,0,0,0c0.1,0,0.2,0.1,0.2,0.1c0,0.1-0.1,0.2-0.2,0.2L31,7.2
				C31,7.2,31,7.2,31,7.2z M14.5,7.2C14.5,7.2,14.5,7.2,14.5,7.2l-1.7,0c-0.1,0-0.2-0.1-0.2-0.2c0-0.1,0.1-0.1,0.2-0.1l1.7,0
				c0.1,0,0.2,0.1,0.2,0.2C14.7,7.1,14.6,7.2,14.5,7.2z M25.8,7C25.8,7,25.7,7,25.8,7l-1.9-0.7c-0.1,0-0.1-0.1-0.1-0.2
				c0-0.1,0.1-0.1,0.2-0.1l1.9,0.7c0.1,0,0.1,0.1,0.1,0.2C25.9,7,25.9,7,25.8,7z M19.8,7c-0.1,0-0.1,0-0.2-0.1c0-0.1,0-0.2,0.1-0.2
				l1.9-0.7c0.1,0,0.2,0,0.2,0.1c0,0.1,0,0.2-0.1,0.2L19.8,7C19.8,7,19.8,7,19.8,7z M12.8,6.8c0,0-0.1,0-0.1-0.1
				c-0.1-0.1,0-0.2,0-0.2l1.4-1c0.1-0.1,0.2,0,0.2,0c0.1,0.1,0,0.2,0,0.2l-1.4,1C12.8,6.8,12.8,6.8,12.8,6.8z M32.8,6.8
				c0,0-0.1,0-0.1,0l-1.4-1c-0.1-0.1-0.1-0.1,0-0.2c0.1-0.1,0.2-0.1,0.2,0l1.4,1c0.1,0.1,0.1,0.1,0,0.2C32.9,6.8,32.9,6.8,32.8,6.8z
				 M35.1,6.8c-0.1,0-0.1,0-0.2-0.1c0-0.1,0-0.2,0.1-0.2l1.7-0.4c0.1,0,0.2,0,0.2,0.1c0,0.1,0,0.2-0.1,0.2L35.1,6.8
				C35.1,6.8,35.1,6.8,35.1,6.8z M10.5,6.8C10.5,6.8,10.5,6.8,10.5,6.8L8.8,6.4c-0.1,0-0.1-0.1-0.1-0.2c0-0.1,0.1-0.1,0.2-0.1
				l1.7,0.4c0.1,0,0.1,0.1,0.1,0.2C10.7,6.7,10.6,6.8,10.5,6.8z M25.6,6.3C25.6,6.3,25.6,6.3,25.6,6.3L24,6c-0.1,0-0.1-0.1-0.1-0.2
				c0-0.1,0.1-0.1,0.1-0.1c-0.1,0-0.1-0.1-0.1-0.1c0-0.1,0-0.2,0.1-0.2l2.3-0.3c0.1,0,0.2,0,0.2,0.1c0,0.1,0,0.2-0.1,0.2L24,5.8
				L25.6,6c0.1,0,0.1,0.1,0.1,0.2C25.7,6.2,25.7,6.3,25.6,6.3z M20,6.3c-0.1,0-0.1-0.1-0.2-0.1c0-0.1,0-0.2,0.1-0.2l1.6-0.2
				l-2.3-0.3c-0.1,0-0.1-0.1-0.1-0.2c0-0.1,0.1-0.1,0.2-0.1l2.3,0.3c0.1,0,0.1,0.1,0.1,0.2c0,0.1-0.1,0.1-0.1,0.1
				c0.1,0,0.1,0.1,0.1,0.1c0,0.1,0,0.2-0.1,0.2L20,6.3C20,6.3,20,6.3,20,6.3z M33,6.3c-0.1,0-0.1,0-0.1-0.1l-1.1-2.1
				c0-0.1,0-0.2,0.1-0.2c0.1,0,0.2,0,0.2,0.1l1.1,2.1C33.2,6.1,33.1,6.2,33,6.3C33,6.3,33,6.3,33,6.3z M12.6,6.3
				C12.6,6.3,12.6,6.3,12.6,6.3c-0.2-0.1-0.2-0.1-0.1-0.2l1.1-2.1c0-0.1,0.1-0.1,0.2-0.1c0.1,0,0.1,0.1,0.1,0.2l-1.1,2.1
				C12.7,6.2,12.7,6.3,12.6,6.3z M35.1,6.2c0,0-0.1,0-0.1-0.1c-0.1-0.1,0-0.2,0-0.2l1.8-1.4c0.1-0.1,0.2,0,0.2,0
				c0.1,0.1,0,0.2,0,0.2l-1.8,1.4C35.1,6.2,35.1,6.2,35.1,6.2z M10.5,6.2c0,0-0.1,0-0.1,0L8.6,4.8c-0.1-0.1-0.1-0.1,0-0.2
				c0.1-0.1,0.2-0.1,0.2,0L10.6,6c0.1,0.1,0.1,0.1,0,0.2C10.6,6.2,10.6,6.2,10.5,6.2z M33.4,5.8c-0.1,0-0.2-0.1-0.2-0.1l-0.2-2.2
				c0-0.1,0.1-0.2,0.1-0.2c0.1,0,0.2,0.1,0.2,0.1l0.2,2.2C33.6,5.7,33.5,5.8,33.4,5.8C33.4,5.8,33.4,5.8,33.4,5.8z M12.2,5.8
				C12.1,5.8,12.1,5.8,12.2,5.8C12,5.8,12,5.7,12,5.6l0.2-2.2c0-0.1,0.1-0.1,0.2-0.1c0.1,0,0.2,0.1,0.1,0.2l-0.2,2.2
				C12.3,5.7,12.2,5.8,12.2,5.8z M34.8,5.7C34.8,5.7,34.8,5.7,34.8,5.7c-0.2-0.1-0.2-0.2-0.1-0.2l1.7-2.1c0.1-0.1,0.2-0.1,0.2,0
				c0.1,0,0.1,0.1,0,0.2L35,5.6C34.9,5.7,34.9,5.7,34.8,5.7z M10.8,5.7c0,0-0.1,0-0.1-0.1L8.9,3.5c-0.1-0.1,0-0.2,0-0.2
				c0.1,0,0.2,0,0.2,0l1.7,2.1C10.9,5.5,10.9,5.6,10.8,5.7C10.8,5.7,10.8,5.7,10.8,5.7z M33.9,5.5C33.9,5.5,33.9,5.5,33.9,5.5
				c-0.1,0-0.2-0.1-0.2-0.2L34,2.7c0-0.1,0.1-0.1,0.2-0.1c0.1,0,0.2,0.1,0.1,0.2l-0.3,2.7C34.1,5.5,34,5.5,33.9,5.5z M11.6,5.5
				c-0.1,0-0.2-0.1-0.2-0.1l-0.3-2.7c0-0.1,0.1-0.2,0.1-0.2c0.1,0,0.2,0.1,0.2,0.1l0.3,2.7C11.8,5.4,11.7,5.5,11.6,5.5
				C11.7,5.5,11.6,5.5,11.6,5.5z M34.4,5.5C34.4,5.5,34.4,5.5,34.4,5.5c-0.1,0-0.2-0.1-0.2-0.2l1.1-3.4c0-0.1,0.1-0.1,0.2-0.1
				c0.1,0,0.1,0.1,0.1,0.2l-1.1,3.4C34.6,5.4,34.5,5.5,34.4,5.5z M11.1,5.5c-0.1,0-0.1,0-0.2-0.1L9.9,2c0-0.1,0-0.2,0.1-0.2
				c0.1,0,0.2,0,0.2,0.1l1.1,3.4C11.3,5.4,11.3,5.4,11.1,5.5C11.2,5.5,11.2,5.5,11.1,5.5z M23.9,5.2c-0.1,0-0.1,0-0.2-0.1
				c0-0.1,0-0.2,0.1-0.2l1.5-0.4c0.1,0,0.2,0,0.2,0.1c0,0.1,0,0.2-0.1,0.2L23.9,5.2C24,5.2,24,5.2,23.9,5.2z M21.6,5.2
				C21.6,5.2,21.6,5.2,21.6,5.2l-1.5-0.4C20,4.8,20,4.8,20,4.7c0-0.1,0.1-0.1,0.2-0.1l1.5,0.4c0.1,0,0.1,0.1,0.1,0.2
				C21.8,5.2,21.7,5.2,21.6,5.2z M23.8,4.7c-0.1,0-0.1,0-0.1-0.1c0-0.1,0-0.2,0.1-0.2l1.9-1c0.1,0,0.2,0,0.2,0.1
				c0,0.1,0,0.2-0.1,0.2L23.8,4.7C23.8,4.7,23.8,4.7,23.8,4.7z M21.8,4.7C21.8,4.7,21.7,4.7,21.8,4.7l-1.9-1c-0.1,0-0.1-0.1-0.1-0.2
				c0-0.1,0.1-0.1,0.2-0.1l1.9,1c0.1,0,0.1,0.1,0.1,0.2C21.9,4.7,21.9,4.7,21.8,4.7z M23.6,4.4c0,0-0.1,0-0.1,0
				c-0.1-0.1-0.1-0.2,0-0.2l1.4-1.3c0.1-0.1,0.2-0.1,0.2,0c0.1,0.1,0.1,0.2,0,0.2l-1.4,1.3C23.7,4.3,23.6,4.4,23.6,4.4z M22,4.4
				c0,0-0.1,0-0.1,0L20.5,3c-0.1-0.1-0.1-0.2,0-0.2c0.1-0.1,0.2-0.1,0.2,0l1.4,1.3c0.1,0.1,0.1,0.2,0,0.2C22.1,4.3,22.1,4.4,22,4.4z
				 M23.3,4.2C23.3,4.2,23.3,4.2,23.3,4.2C23.2,4.1,23.1,4,23.2,4l1.5-2.6c0-0.1,0.1-0.1,0.2-0.1c0.1,0,0.1,0.1,0.1,0.2l-1.5,2.6
				C23.4,4.1,23.4,4.2,23.3,4.2z M22.3,4.2c-0.1,0-0.1,0-0.1-0.1l-1.5-2.6c0-0.1,0-0.2,0.1-0.2c0.1,0,0.2,0,0.2,0.1L22.4,4
				C22.5,4,22.4,4.1,22.3,4.2C22.3,4.2,22.3,4.2,22.3,4.2z M22.8,4.1c0,0-0.1,0-0.1,0c0,0,0,0,0,0c-0.1,0-0.2,0-0.2-0.1L22,2.4
				c0-0.1,0-0.2,0.1-0.2c0.1,0,0.2,0,0.2,0.1l0.3,1V0.4c0-0.1,0.1-0.1,0.2-0.1c0.1,0,0.2,0.1,0.2,0.1v2.9l0.3-1.1
				c0-0.1,0.1-0.1,0.2-0.1c0.1,0,0.1,0.1,0.1,0.2l-0.4,1.6c0,0.1-0.1,0.1-0.2,0.1c0,0,0,0,0,0C22.9,4.1,22.8,4.1,22.8,4.1z"/>
		</g>
		<g id="g17_00000145777667391633517530000010012657808457842854_" transform="translate(-1.288,0)">
			<g>
				<path id="Schildrand_00000122702078383995381900000006649153181941222286_" class="st2" d="M5.3,22.4v24.7
					c0,9.3,8.3,17.4,18.8,17.4c10.5,0,18.7-8,18.7-17.4V22.4H5.3z"/>
				<path d="M24.1,64.7c-5.1,0-9.9-1.9-13.5-5.3C7,56.1,5,51.7,5,47.1v-25h38.2v25c0,4.6-2,9-5.5,12.4C34,62.9,29.2,64.7,24.1,64.7z
					 M5.7,22.7v24.4c0,9.4,8.3,17.1,18.4,17.1c10.2,0,18.4-7.6,18.4-17.1V22.7H5.7z"/>
			</g>
			<g id="g20_00000143598330797704629810000008298728371930703524_">
				<g>
					<path id="Schildkörper_00000026160922872227742750000005823854788661942170_" class="st2" d="M6.4,23.3v23.5
						c0,8.9,7.8,16.5,17.7,16.5s17.7-7.6,17.7-16.5V23.3H6.4z"/>
					<path d="M24.1,63.5c-4.8,0-9.3-1.8-12.7-5C8,55.3,6.1,51.2,6.1,46.8V23H42v23.8c0,4.4-1.9,8.6-5.2,11.8
						C33.4,61.8,28.9,63.5,24.1,63.5z M6.7,23.5v23.2c0,9,7.8,16.3,17.4,16.3c9.6,0,17.4-7.3,17.4-16.3V23.5H6.7z"/>
				</g>
				
					<g id="g4047_00000165224373722808669420000014458421794411811231_" transform="matrix(1.0174155,0,0,1.0174155,-6.1894069,0.95264768)">
					<g>
						<path id="Schlüsselbart_00000059303479301152847810000009145413935515114386_" class="st3" d="M24.5,38.3
							c0.8-0.8,1.7-1.5,2.5-2.3c-0.5-0.5-1.6-1.4-1.6-1.4l-0.8,0.7l0.9,0.9l-0.7,0.6l-1.6-1.4l2.3-2.1l2.9,2.6c0,0-2.2,2-3.2,3
							 M20.5,34.7c2.4-2.2,4.8-4.4,7.2-6.5c-1-1-3.1-2.8-3.1-2.8l-2.3,2.1l1.6,1.4l0.8-0.7l-0.9-0.9l0.6-0.5l1.7,1.5l-2.1,1.9
							l-3.1-2.8l3.6-3.2l0,0l8.6,7.7l-3.6,3.2l-2.9-2.6l2.1-1.9l1.6,1.4l-0.6,0.6l-1-0.8l-0.8,0.7l1.6,1.4c0,0,1.5-1.4,2.3-2.1
							c-1-1-3.1-2.8-3.1-2.8l-7.3,6.5 M16.6,31.2l3.3-2.9l3.1,2.8l-2.3,2.1L19,31.6l0.7-0.6l1,0.8l0.8-0.7l-1.6-1.4l-2.5,2.3"/>
						<path d="M25.4,39.1l-0.3-0.2c0.9-0.9,2.6-2.4,3.1-2.9l-2.7-2.4l-2.1,1.9l1.3,1.2l0.5-0.4l-0.9-0.9l1.1-1l0.1,0.1
							c0,0,1.1,0.9,1.6,1.4l0.1,0.1l-0.1,0.1c-0.3,0.3-0.6,0.5-0.9,0.8c-0.5,0.5-1.1,1-1.6,1.5l-0.3-0.2c0.5-0.5,1.1-1,1.6-1.5
							c0.3-0.2,0.5-0.5,0.8-0.7c-0.4-0.4-1.1-1-1.3-1.2l-0.6,0.5l0.9,0.9l-0.9,0.9L23,35.4l2.6-2.3l3.2,2.9l-0.1,0.1
							C28.6,36.1,26.4,38.1,25.4,39.1z M21.5,35.6l-0.2-0.2l7.4-6.6l0.1,0.1c0,0,2.1,1.9,3.1,2.8l0.1,0.1l-0.1,0.1
							c-0.7,0.7-2.3,2-2.3,2.1L29.5,34l-1.8-1.6l1-0.9l1,0.8l0.4-0.3l-1.3-1.2l-1.9,1.7l2.7,2.4l3.3-3l-8.3-7.5l-3.4,3l2.9,2.6
							l1.9-1.7L24.5,27l-0.4,0.3l0.9,0.9l-1,0.9l-1.8-1.6l2.5-2.3l0.1,0.1c0,0,2.2,1.9,3.1,2.8l0.1,0.1l-1.3,1.2
							c-2,1.8-4.1,3.6-6.1,5.5l-0.3-0.2c2-1.9,4.1-3.7,6.1-5.5l1-0.9c-0.9-0.8-2.4-2.2-2.9-2.6l-2,1.8l1.3,1.2l0.5-0.5l-0.9-0.9
							l0.8-0.8l2,1.7l-2.4,2.1l-3.4-3l3.8-3.4l0.2,0l8.7,7.9l-3.8,3.5l-3.2-2.9l2.4-2.1l1.8,1.6l-0.9,0.8l-1-0.8l-0.5,0.5l1.3,1.2
							c0.4-0.3,1.4-1.3,2-1.8c-0.9-0.8-2.4-2.2-2.9-2.6L21.5,35.6z M20.7,33.4l-2-1.7l0.9-0.9l1,0.8l0.6-0.5l-1.4-1.2L17.5,32
							l-0.2-0.2l2.6-2.4l1.9,1.7L20.7,32l-1-0.8l-0.5,0.4l1.5,1.3l2.1-1.9l-2.9-2.6l-3.2,2.8l-0.2-0.2l3.4-3l3.4,3L20.7,33.4z"/>
					</g>
					<g>
						<path id="Schlüsselkörper_00000145738546700813868820000003252921551921637007_" class="st3" d="M40.1,53.2
							C40,53.2,40,53.2,40.1,53.2c0.4-0.6-0.2-1.4-1-1.2c0.1-0.3-0.4-0.5-0.7-0.4l-0.1,0.1c-1-1.3-0.7-4.3,0.3-5.8l0.1,0
							c0.3,0.2,0.7-0.1,0.6-0.4c0.8,0.3,1.4-0.6,0.9-1.2l0,0c0.6-0.3,0.8-0.3,1.2-0.6c0.9-0.6,0.8-1.4,0.2-2
							c-0.9-0.8-2.4-0.3-2.8,0.8c0,0,0,0.2-0.1,0.3l-0.1-0.1c-0.6-0.3-1.3,0.2-1.2,0.8c-0.3-0.1-0.6,0.2-0.5,0.5l0,0.1
							c-2,1-4.6,0.8-6.5-0.3l0.1-0.1c0.2-0.3-0.1-0.6-0.5-0.6c0.2-0.6-0.5-1.2-1.1-1.1c0-0.2-0.1-0.4-0.3-0.5
							c-0.2-0.2-0.6,0.1-0.6,0.1l-13.2-12L13.2,31l12.9,12.3c-0.1,0.1-0.1,0.2-0.1,0.2c-0.1,0.3,0.1,0.6,0.5,0.6l0,0.4
							c0.1,0.5,0.6,0.8,1.2,0.8c-0.1,0.3,0.3,0.6,0.6,0.5l0.1,0c1.3,1.6,1.5,3.8,0.6,5.6l-0.1,0c-0.3-0.2-0.7,0-0.7,0.4
							c-0.8-0.2-1.4,0.6-0.9,1.2c-0.5,0.3-0.9,0.3-1.3,0.6c-1.6,1.2,0.5,3.1,2,2.1c0.4-0.3,0.7-0.8,0.8-1.2l0.2,0.1
							c0.6,0.3,1.3-0.3,1.1-0.8c0.4,0.1,0.6-0.3,0.5-0.5l0-0.2c1.9-0.7,4.3-0.6,6,0.4l0,0c-0.2,0.3,0.1,0.6,0.4,0.6
							c-0.2,0.8,0.8,1.2,1.4,0.7c0.3,0.9,1.5,2.1,2.7,1.4C42.3,55.3,41.9,53.3,40.1,53.2L40.1,53.2z M35.3,49.9
							c-0.4,0.5-1.3,0-1.6-0.4c-0.4,0.4-1.3,1-1.7,0.3c-0.1-0.5,0.3-0.8,0.6-1.1c-0.4-0.3-1.1-1.3-0.5-1.6c0.6-0.2,1.1,0.5,1.5,0.7
							c0.4-0.4,1-0.9,1.5-0.6c0.7,0.4,0,1.2-0.5,1.5C35,49,35.6,49.5,35.3,49.9z"/>
						<path d="M40.4,56.4c-0.2,0-0.3,0-0.5-0.1c-0.7-0.2-1.3-0.9-1.5-1.4c-0.4,0.1-0.8,0.1-1.1-0.1c-0.3-0.2-0.4-0.4-0.4-0.8
							c-0.1,0-0.3-0.1-0.4-0.2c-0.1-0.2-0.2-0.3-0.1-0.5c-1.6-0.8-3.7-1-5.5-0.4c0.1,0.2,0,0.4-0.2,0.6c-0.1,0.1-0.2,0.2-0.3,0.2
							c0,0.3-0.2,0.5-0.5,0.7c-0.3,0.2-0.7,0.2-1,0.1c-0.2,0.4-0.4,0.9-0.8,1.1c-0.9,0.6-2,0.3-2.6-0.4c-0.4-0.5-0.6-1.3,0.3-2
							c0.3-0.2,0.5-0.3,0.8-0.4c0.1,0,0.2-0.1,0.3-0.1c-0.1-0.3-0.1-0.7,0.1-0.9c0.2-0.3,0.6-0.4,0.9-0.4c0.1-0.1,0.2-0.2,0.3-0.3
							c0.2-0.1,0.4-0.1,0.5,0c0.7-1.6,0.5-3.6-0.6-5.1c-0.2,0-0.5,0-0.7-0.2c-0.1-0.1-0.2-0.2-0.2-0.3c-0.3,0-0.5-0.1-0.8-0.3
							c-0.2-0.2-0.4-0.4-0.4-0.7l0,0l0-0.2c-0.2-0.1-0.3-0.2-0.4-0.3c-0.1-0.2-0.1-0.4,0-0.5l0-0.1l-13-12.3l1.9-1.6l13.2,12
							c0.2-0.1,0.5-0.1,0.7,0c0.2,0.1,0.3,0.3,0.4,0.5c0.4,0,0.7,0.2,0.9,0.4c0.2,0.2,0.3,0.5,0.3,0.7c0.2,0.1,0.3,0.2,0.4,0.3
							c0.1,0.2,0.1,0.3,0,0.5c1.8,1,4.1,1.1,5.9,0.3c-0.1-0.2,0-0.4,0.2-0.6c0.1-0.1,0.2-0.1,0.3-0.2c0-0.3,0.2-0.5,0.5-0.7
							c0.3-0.2,0.7-0.2,1-0.1c0,0,0,0,0,0c0.2-0.7,0.8-1.2,1.5-1.4c0.6-0.1,1.2,0,1.7,0.4c0.4,0.3,0.6,0.8,0.5,1.2
							c0,0.4-0.3,0.8-0.8,1.1c-0.3,0.2-0.5,0.3-0.7,0.4c-0.1,0-0.2,0.1-0.3,0.1c0.2,0.3,0.1,0.7-0.1,1c-0.2,0.3-0.6,0.4-0.9,0.4
							c0,0.1-0.1,0.2-0.3,0.3c-0.2,0.1-0.4,0.1-0.5,0.1c-0.8,1.4-1.1,3.9-0.3,5.2c0.2-0.1,0.5-0.1,0.7,0.1c0.1,0.1,0.2,0.2,0.2,0.3
							c0.3,0,0.7,0.2,0.9,0.4c0.2,0.2,0.2,0.5,0.1,0.8c0.8,0.1,1.4,0.6,1.6,1.3c0.2,0.7,0,1.4-0.7,1.8C41,56.3,40.7,56.4,40.4,56.4z
							 M38.6,54.3l0.1,0.3c0.2,0.5,0.7,1.2,1.3,1.4c0.3,0.1,0.7,0.1,1-0.1c0.5-0.3,0.6-0.9,0.5-1.4c-0.2-0.6-0.7-1-1.4-1l-0.1,0l0,0
							c0,0-0.1,0-0.1-0.1l-0.2-0.1l0.1-0.2c0.1-0.2,0.1-0.4,0-0.6c-0.1-0.2-0.4-0.3-0.7-0.2l-0.4,0.1l0.1-0.3c0,0,0-0.1-0.1-0.1
							c-0.1,0-0.2-0.1-0.3,0L38.3,52l-0.1-0.2c-1.1-1.4-0.8-4.5,0.3-6l0.1-0.1l0.3,0.1c0.1,0.1,0.2,0,0.2,0c0,0,0.1-0.1,0.1-0.2
							l0-0.3l0.3,0.1c0.3,0.1,0.5,0,0.7-0.2c0.1-0.2,0.2-0.4,0-0.7l0,0l-0.1-0.2l0.2-0.1c0.2-0.1,0.4-0.2,0.6-0.2
							c0.3-0.1,0.4-0.2,0.7-0.3c0.3-0.2,0.5-0.5,0.6-0.8c0-0.3-0.1-0.6-0.4-0.9c-0.3-0.3-0.8-0.4-1.2-0.3c-0.5,0.1-1,0.5-1.1,1.1
							l0,0c0,0.1-0.1,0.3-0.3,0.4l-0.1,0L38.5,43c-0.2-0.1-0.4-0.1-0.6,0c-0.2,0.1-0.3,0.3-0.3,0.5l0.1,0.3l-0.3-0.1
							c-0.1,0-0.1,0-0.2,0c0,0-0.1,0.1-0.1,0.2l0.1,0.3l-0.2,0.1c-2,1-4.7,0.9-6.7-0.3L30.2,44l0.2-0.3c0-0.1,0-0.1,0-0.2
							c-0.1-0.1-0.2-0.1-0.3-0.2l-0.3,0l0.1-0.2c0.1-0.3-0.1-0.5-0.1-0.6c-0.2-0.2-0.5-0.3-0.8-0.3l-0.3,0l0-0.2
							c0-0.1-0.1-0.2-0.2-0.3c-0.1,0-0.3,0-0.4,0.1L28,41.9l-0.1-0.1L14.8,30l-1.2,1l12.9,12.2l-0.2,0.3c0,0.1,0,0.1,0,0.2
							c0.1,0.1,0.2,0.1,0.3,0.2l0.2,0l-0.1,0.6c0,0.2,0.1,0.3,0.2,0.4c0.2,0.1,0.4,0.2,0.7,0.2l0.3,0l-0.1,0.3c0,0.1,0,0.2,0.1,0.2
							c0.1,0.1,0.2,0.1,0.3,0.1l0.2-0.1l0.1,0.1c1.3,1.6,1.5,4,0.6,5.8l-0.1,0.2l-0.3-0.2c-0.1-0.1-0.2,0-0.2,0
							c-0.1,0-0.1,0.1-0.1,0.2l0,0.3l-0.3-0.1c-0.3-0.1-0.6,0.1-0.7,0.2c-0.1,0.2-0.2,0.4,0,0.7l0.2,0.2L27.5,53
							c-0.2,0.1-0.4,0.2-0.6,0.2c-0.3,0.1-0.5,0.2-0.7,0.4c-0.8,0.6-0.4,1.3-0.3,1.5c0.4,0.5,1.3,0.8,2,0.3c0.3-0.2,0.6-0.8,0.7-1.1
							l0.1-0.2l0.4,0.2c0.3,0.1,0.5,0,0.5-0.1c0.2-0.1,0.3-0.4,0.3-0.6l-0.1-0.3l0.4,0.1c0.1,0,0.1,0,0.2,0c0,0,0.1-0.1,0-0.2l0,0
							l0-0.3l0.1-0.1c2-0.8,4.4-0.6,6.2,0.4l0.2,0.1l-0.1,0.2c-0.1,0.1,0,0.2,0,0.2c0,0,0.1,0.1,0.2,0.1l0.3-0.1L37.3,54
							c-0.1,0.2,0,0.4,0.2,0.6c0.2,0.1,0.6,0.1,0.9,0L38.6,54.3z M40.1,53.2l-0.1,0.2c0,0,0,0,0,0L40.1,53.2L40.1,53.2z M34.8,50.3
							c-0.4,0-0.9-0.3-1.2-0.6c-0.3,0.3-0.8,0.6-1.3,0.5c-0.2,0-0.5-0.1-0.6-0.4l0-0.1c-0.1-0.5,0.2-0.9,0.5-1.2
							c-0.3-0.3-0.7-0.9-0.6-1.3c0-0.2,0.2-0.4,0.4-0.4c0.5-0.2,1,0.2,1.3,0.5c0.1,0.1,0.2,0.1,0.2,0.2c0.6-0.6,1.2-0.7,1.7-0.5
							c0.3,0.1,0.4,0.4,0.4,0.6c0,0.4-0.3,0.8-0.6,1c0.6,0.5,0.8,0.9,0.5,1.3l0,0C35.3,50.2,35.1,50.3,34.8,50.3
							C34.9,50.3,34.8,50.3,34.8,50.3z M33.6,49.1l0.2,0.2c0.3,0.3,0.7,0.6,1,0.6c0.1,0,0.2,0,0.2-0.1c0.2-0.3-0.2-0.6-0.6-0.9
							l-0.3-0.2l0.3-0.2c0.3-0.2,0.7-0.6,0.7-0.9c0-0.1-0.1-0.2-0.2-0.3c-0.3-0.2-0.9,0.2-1.2,0.5l-0.1,0.1L33.5,48
							c-0.2-0.1-0.3-0.2-0.5-0.3c-0.3-0.3-0.6-0.5-0.8-0.4c-0.1,0-0.1,0.1-0.1,0.1c-0.1,0.3,0.4,0.9,0.7,1.1l0.2,0.2l-0.2,0.2
							c-0.3,0.3-0.6,0.6-0.5,0.9c0.1,0.1,0.2,0.2,0.3,0.2c0.3,0,0.8-0.2,1.1-0.5L33.6,49.1z"/>
					</g>
					<path d="M37.1,53.1C37,53.1,37,53.1,37.1,53.1c-2.1-1.3-4.8-1.5-6.8-0.5c-0.1,0-0.2,0-0.2-0.1c0-0.1,0-0.2,0.1-0.2
						c2.2-1,5-0.8,7.1,0.5c0.1,0,0.1,0.1,0,0.2C37.2,53.1,37.1,53.1,37.1,53.1z M37.9,52.3c-0.1,0-0.1,0-0.1-0.1
						c-1.2-2.1-1.1-4.7,0.4-6.8c0-0.1,0.1-0.1,0.2,0c0.1,0,0.1,0.1,0,0.2c-1.4,2-1.6,4.5-0.4,6.5C38.1,52.2,38,52.3,37.9,52.3
						C37.9,52.3,37.9,52.3,37.9,52.3z M29.4,51.8C29.4,51.8,29.4,51.8,29.4,51.8c-0.2-0.1-0.2-0.1-0.1-0.2c1.1-2,0.9-4.5-0.5-6.2
						c-0.1-0.1,0-0.2,0-0.2c0.1,0,0.2,0,0.2,0c1.5,1.9,1.7,4.4,0.5,6.5C29.5,51.8,29.5,51.8,29.4,51.8z M34.1,45.5
						c-1.4,0-2.9-0.4-4.1-1.1c-0.1,0-0.1-0.1,0-0.2c0-0.1,0.2-0.1,0.2,0c2.1,1.3,4.9,1.4,7.1,0.3c0.1,0,0.2,0,0.2,0.1
						c0,0.1,0,0.2-0.1,0.2C36.4,45.3,35.3,45.5,34.1,45.5z"/>
					<path d="M37,51.9l-0.5-0.2c-0.1-0.1-0.3-0.1-0.4-0.2c-0.1-0.1-0.3-0.1-0.4-0.1c-0.1,0-0.3-0.1-0.4-0.1c-0.1,0-0.3-0.1-0.4-0.1
						c-0.1,0-0.2-0.1-0.4-0.1c-0.1,0-0.2,0-0.3-0.1c-0.1,0-0.2,0-0.3,0c-0.1,0-0.2,0-0.3,0c-0.1,0-0.2,0-0.3,0c-0.1,0-0.2,0-0.3,0
						c-0.1,0-0.2,0-0.4,0c-0.1,0-0.2,0-0.4,0.1c-0.1,0-0.3,0-0.4,0.1c-0.1,0-0.3,0.1-0.4,0.1c-0.1,0-0.3,0.1-0.4,0.1
						c-0.2,0.1-0.3,0.1-0.4,0.2L30,51.7l0.2-0.4c0.1-0.1,0.1-0.3,0.2-0.4c0.1-0.1,0.1-0.3,0.2-0.4c0-0.1,0.1-0.2,0.1-0.4
						c0-0.1,0.1-0.2,0.1-0.3c0-0.1,0.1-0.2,0.1-0.3c0-0.1,0-0.2,0.1-0.3c0-0.1,0-0.2,0-0.3c0-0.1,0-0.2,0-0.3c0-0.1,0-0.2,0-0.3
						c0-0.1,0-0.2,0-0.3c0-0.1,0-0.2,0-0.3c0-0.1,0-0.2-0.1-0.3c0-0.1,0-0.2-0.1-0.3c0-0.1-0.1-0.2-0.1-0.4c0-0.1-0.1-0.3-0.1-0.4
						c-0.1-0.1-0.1-0.3-0.2-0.4l-0.2-0.4l0.5,0.2c0.1,0.1,0.3,0.1,0.4,0.2c0.1,0.1,0.3,0.1,0.4,0.1c0.1,0,0.3,0.1,0.4,0.1
						c0.1,0,0.3,0.1,0.4,0.1c0.1,0,0.2,0.1,0.4,0.1c0.1,0,0.2,0,0.3,0.1c0.1,0,0.2,0,0.3,0c0.1,0,0.2,0,0.3,0c0.1,0,0.2,0,0.3,0
						c0.1,0,0.2,0,0.3,0c0.1,0,0.2,0,0.4,0c0.1,0,0.2,0,0.4,0c0.1,0,0.2,0,0.4-0.1c0.1,0,0.3-0.1,0.4-0.1c0.1,0,0.3-0.1,0.4-0.1
						c0.2,0,0.3-0.1,0.4-0.2l0.5-0.2L37,46c-0.1,0.1-0.1,0.3-0.2,0.4c-0.1,0.1-0.1,0.3-0.2,0.4c0,0.1-0.1,0.2-0.1,0.4
						c0,0.1-0.1,0.2-0.1,0.3c0,0.1-0.1,0.2-0.1,0.3c0,0.1,0,0.2-0.1,0.3c0,0.1,0,0.2,0,0.3c0,0.1,0,0.2,0,0.3c0,0.1,0,0.2,0,0.3
						c0,0.1,0,0.2,0,0.3c0,0.1,0,0.2,0,0.3c0,0.1,0,0.2,0.1,0.3c0,0.1,0,0.2,0.1,0.3c0,0.1,0.1,0.2,0.1,0.4c0,0.1,0.1,0.3,0.1,0.4
						c0.1,0.1,0.1,0.3,0.2,0.4L37,51.9z M33.3,50.6c0.1,0,0.2,0,0.2,0c0.1,0,0.2,0,0.4,0c0.1,0,0.2,0,0.4,0c0.1,0,0.2,0,0.4,0.1
						c0.1,0,0.3,0,0.4,0.1c0.1,0,0.3,0.1,0.4,0.1c0.1,0,0.3,0.1,0.4,0.1c0.1,0,0.3,0.1,0.4,0.2c0,0,0,0,0,0c0,0,0,0,0,0
						c-0.1-0.1-0.1-0.3-0.1-0.4c0-0.1-0.1-0.3-0.1-0.4c0-0.1-0.1-0.2-0.1-0.4c0-0.1,0-0.2-0.1-0.3c0-0.1,0-0.2,0-0.3
						c0-0.1,0-0.2,0-0.3c0-0.1,0-0.2,0-0.3c0-0.1,0-0.2,0-0.3c0-0.1,0-0.2,0-0.3c0-0.1,0-0.2,0.1-0.3c0-0.1,0.1-0.2,0.1-0.3
						c0-0.1,0.1-0.2,0.1-0.4c0-0.1,0.1-0.2,0.1-0.4c0.1-0.1,0.1-0.3,0.2-0.4c0,0,0,0,0,0c0,0,0,0,0,0c-0.1,0-0.3,0.1-0.4,0.1
						c-0.1,0-0.3,0.1-0.4,0.1c-0.1,0-0.3,0.1-0.4,0.1c-0.1,0-0.3,0-0.4,0.1c-0.1,0-0.2,0-0.4,0c-0.1,0-0.2,0-0.4,0
						c-0.1,0-0.2,0-0.4,0c-0.1,0-0.2,0-0.4,0c-0.1,0-0.2,0-0.4,0c-0.1,0-0.2,0-0.4-0.1c-0.1,0-0.3,0-0.4-0.1c-0.1,0-0.3-0.1-0.4-0.1
						c-0.1,0-0.3-0.1-0.4-0.1c-0.1,0-0.3-0.1-0.4-0.2c0,0,0,0,0,0c0,0,0,0,0,0c0.1,0.1,0.1,0.3,0.1,0.4c0,0.1,0.1,0.3,0.1,0.4
						c0,0.1,0.1,0.2,0.1,0.4c0,0.1,0,0.2,0.1,0.3c0,0.1,0,0.2,0,0.3c0,0.1,0,0.2,0,0.3c0,0.1,0,0.2,0,0.3c0,0.1,0,0.2,0,0.3
						c0,0.1,0,0.2,0,0.3c0,0.1,0,0.2-0.1,0.3c0,0.1-0.1,0.2-0.1,0.3c0,0.1-0.1,0.2-0.1,0.4c0,0.1-0.1,0.3-0.1,0.4
						c-0.1,0.1-0.1,0.3-0.2,0.4c0,0,0,0,0,0c0,0,0,0,0,0c0.1,0,0.3-0.1,0.4-0.1c0.1,0,0.3-0.1,0.4-0.1c0.1,0,0.3-0.1,0.4-0.1
						c0.1,0,0.3,0,0.4-0.1c0.1,0,0.2,0,0.4,0c0.1,0,0.2,0,0.4,0C33.2,50.6,33.3,50.6,33.3,50.6z"/>
					<path d="M38.4,54.8c0,0-0.1,0-0.1-0.1c-0.1-0.1-0.1-0.2,0-0.3l1.6-1.5c0.1-0.1,0.2-0.1,0.3,0c0.1,0.1,0.1,0.2,0,0.3l-1.6,1.5
						C38.5,54.8,38.5,54.8,38.4,54.8z M28.8,54.4c-0.1,0-0.1,0-0.1-0.1l-1.4-1.5c-0.1-0.1-0.1-0.2,0-0.3c0.1-0.1,0.2-0.1,0.3,0
						l1.4,1.5c0.1,0.1,0.1,0.2,0,0.3C28.9,54.4,28.8,54.4,28.8,54.4z M37.1,54.1c0,0-0.1,0-0.1-0.1c-0.1-0.1-0.1-0.2,0-0.3l2-1.9
						c0.1-0.1,0.2-0.1,0.3,0c0.1,0.1,0.1,0.2,0,0.3l-2,1.9C37.2,54.1,37.1,54.1,37.1,54.1z M30.2,53.7c-0.1,0-0.1,0-0.1-0.1l-1.9-2
						c-0.1-0.1-0.1-0.2,0-0.3c0.1-0.1,0.2-0.1,0.3,0l1.9,2c0.1,0.1,0.1,0.2,0,0.3C30.3,53.7,30.2,53.7,30.2,53.7z M36.6,53.6
						c0,0-0.1,0-0.1,0c-0.1-0.1-0.1-0.2,0-0.3l1.9-1.8c0.1-0.1,0.2-0.1,0.3,0c0.1,0.1,0.1,0.2,0,0.3l-1.9,1.8
						C36.7,53.6,36.7,53.6,36.6,53.6z M30.7,53.2c-0.1,0-0.1,0-0.1-0.1l-1.7-1.8c-0.1-0.1-0.1-0.2,0-0.3c0.1-0.1,0.2-0.1,0.3,0
						l1.7,1.8c0.1,0.1,0.1,0.2,0,0.3C30.8,53.2,30.7,53.2,30.7,53.2z M38.7,46.1c-0.1,0-0.1,0-0.1-0.1l-1.7-1.8
						c-0.1-0.1-0.1-0.2,0-0.3c0.1-0.1,0.2-0.1,0.3,0l1.7,1.8c0.1,0.1,0.1,0.2,0,0.3C38.7,46.1,38.7,46.1,38.7,46.1z M28.3,45.8
						c-0.1,0-0.1,0-0.1-0.1c-0.1-0.1-0.1-0.2,0-0.3l2.2-1.8c0.1-0.1,0.2-0.1,0.3,0c0.1,0.1,0.1,0.2,0,0.3l-2.2,1.8
						C28.4,45.8,28.4,45.8,28.3,45.8z M39.3,45.8c-0.1,0-0.1,0-0.1-0.1l-1.9-2c-0.1-0.1-0.1-0.2,0-0.3c0.1-0.1,0.2-0.1,0.3,0l1.9,2
						c0.1,0.1,0.1,0.2,0,0.3C39.4,45.7,39.4,45.8,39.3,45.8z M27.7,45.4c-0.1,0-0.1,0-0.1-0.1c-0.1-0.1-0.1-0.2,0-0.3l2.4-2
						c0.1-0.1,0.2-0.1,0.3,0c0.1,0.1,0.1,0.2,0,0.3l-2.4,2C27.8,45.3,27.7,45.4,27.7,45.4z M40.3,44.7c-0.1,0-0.1,0-0.1-0.1L38.6,43
						c-0.1-0.1-0.1-0.2,0-0.3c0.1-0.1,0.2-0.1,0.3,0l1.5,1.6c0.1,0.1,0.1,0.2,0,0.3C40.4,44.7,40.3,44.7,40.3,44.7z M26.6,44.2
						c-0.1,0-0.1,0-0.1-0.1c-0.1-0.1-0.1-0.2,0-0.3l2.4-1.9c0.1-0.1,0.2-0.1,0.3,0c0.1,0.1,0.1,0.2,0,0.3l-2.4,1.9
						C26.7,44.2,26.6,44.2,26.6,44.2z M26.2,43.5c-0.1,0-0.1,0-0.1-0.1c-0.1-0.1-0.1-0.2,0-0.3l1.9-1.7c0.1-0.1,0.2-0.1,0.3,0
						c0.1,0.1,0.1,0.2,0,0.3l-1.9,1.7C26.3,43.5,26.2,43.5,26.2,43.5z"/>
				</g>
			</g>
		</g>
	</g>
</g>
</svg>
