<?xml version="1.0" encoding="utf-8"?>
<!-- Generator: Adobe Illustrator 26.3.1, SVG Export Plug-In . SVG Version: 6.00 Build 0)  -->
<svg version="1.1" id="Layer_1" xmlns="http://www.w3.org/2000/svg" xmlns:xlink="http://www.w3.org/1999/xlink" x="0px" y="0px"
	 viewBox="0 0 29 36.2" style="enable-background:new 0 0 29 36.2;" xml:space="preserve">
<style type="text/css">
	.st0{fill-rule:evenodd;clip-rule:evenodd;fill:#DA121A;}
	.st1{fill:#FFFFFF;}
	.st2{fill:#DA121A;}
</style>
<g>
	<path id="path10563-0-6-2-8-1_00000171692588595795477010000011456524875448770746_" class="st0" d="M2.4,1.9l-2,1.8L1,22.9
		c0,0,0.4,2,0.9,2.9c1.3,2.4,3,4.8,5.3,6.2c2.1,1.4,5.3,2.2,7.4,2.2l0,0h0h0h0l0,0c2.1,0,5.2-0.8,7.4-2.2c2.3-1.5,4-3.9,5.3-6.2
		c0.5-0.9,0.9-2.9,0.9-2.9l0.6-19.2l-2-1.8H14.5h0h0H2.4z"/>
	<path d="M14.5,34.6C14.5,34.6,14.5,34.6,14.5,34.6L14.5,34.6c-2,0-5.3-0.8-7.6-2.3c-2-1.3-3.8-3.4-5.4-6.4c-0.5-0.9-0.9-2.9-0.9-3
		c0,0,0,0,0,0L0.1,3.7c0-0.1,0-0.2,0.1-0.2l2-1.8c0.1-0.1,0.1-0.1,0.2-0.1h24.2c0.1,0,0.2,0,0.2,0.1l2,1.8c0.1,0.1,0.1,0.1,0.1,0.2
		l-0.6,19.2c0,0,0,0,0,0c0,0.1-0.4,2.1-0.9,3c-1.6,3-3.3,5-5.4,6.4C19.8,33.8,16.5,34.6,14.5,34.6z M1.3,22.8c0,0.2,0.4,2,0.8,2.8
		c1.5,2.9,3.2,4.9,5.2,6.1c2.2,1.4,5.3,2.2,7.2,2.2l0,0.3l0-0.3c1.9,0,5-0.8,7.2-2.2c1.9-1.3,3.6-3.3,5.2-6.1
		c0.4-0.8,0.8-2.6,0.8-2.8l0.6-19l-1.8-1.6h-24L0.7,3.8L1.3,22.8z"/>
	<g>
		<path id="rect2072_00000069387758710580179230000003961771312106735505_" class="st1" d="M14.5,1.9v32.4c2.1,0,5.2-0.8,7.4-2.2
			c2.3-1.5,4-3.9,5.3-6.2c0.5-0.9,0.9-2.9,0.9-2.9l0.6-19.2l-2-1.8H14.5z"/>
		<path d="M14.5,34.6c-0.1,0-0.2,0-0.2-0.1c-0.1-0.1-0.1-0.1-0.1-0.2V1.9c0-0.2,0.1-0.3,0.3-0.3h12.1c0.1,0,0.2,0,0.2,0.1l2,1.8
			c0.1,0.1,0.1,0.1,0.1,0.2l-0.6,19.2c0,0,0,0,0,0c0,0.1-0.4,2.1-0.9,3c-1.6,3-3.3,5-5.4,6.4C19.8,33.8,16.5,34.6,14.5,34.6
			C14.5,34.6,14.5,34.6,14.5,34.6z M14.8,2.2V34c2-0.1,4.9-0.8,6.9-2.2c1.9-1.3,3.6-3.3,5.2-6.1c0.4-0.8,0.8-2.6,0.8-2.8l0.6-19
			l-1.8-1.6H14.8z"/>
	</g>
	<g>
		<path id="path877_00000130638436858427373810000005041262618798300550_" class="st1" d="M14.5,27.9V5.1H4.9l-2.7,5.7
			c0,0,1-0.7,1.5-0.9c0.7-0.3,1.4-0.5,2.1-0.6c0.8-0.2,1.7-0.2,2.6-0.2c0.9,0,1.9-0.1,2.8,0.2c0.3,0.1,0.5,0.1,0.7,0.3
			c0.3,0.3,0.3,1.2,0.3,1.2l-0.2,14.8c0,0-0.1,1-0.2,1.4c-0.2,0.5-0.4,1-0.8,1.3c-0.5,0.5-1.3,0.8-2,0.9c-0.3,0.1-1-0.1-1-0.1
			s0.9,0.5,1.4,0.6c0.5,0.1,0.9,0.2,1.4,0.2c0.6,0,1.2-0.1,1.7-0.3c0.5-0.2,0.9-0.4,1.3-0.7C14.2,28.6,14.5,27.9,14.5,27.9
			L14.5,27.9z"/>
		<path d="M10.9,30.3c-0.4,0-0.9-0.1-1.4-0.2C8.9,29.9,8,29.4,8,29.4c-0.1-0.1-0.2-0.2-0.1-0.4c0.1-0.1,0.2-0.2,0.4-0.2
			c0.2,0,0.7,0.1,0.9,0.1c0.7-0.1,1.3-0.4,1.8-0.9c0.3-0.3,0.6-0.7,0.8-1.2c0.1-0.3,0.2-1.1,0.2-1.3L12,10.7c0-0.3-0.1-0.8-0.2-1
			c-0.1-0.1-0.3-0.1-0.5-0.2c0,0-0.1,0-0.1,0c-0.8-0.2-1.6-0.2-2.5-0.1c-0.1,0-0.2,0-0.3,0c-1,0-1.8,0.1-2.5,0.2
			c-0.8,0.2-1.5,0.3-2.1,0.6C3.4,10.4,2.4,11,2.4,11c-0.1,0.1-0.3,0.1-0.4,0c-0.1-0.1-0.1-0.2-0.1-0.4l2.7-5.7
			c0.1-0.1,0.2-0.2,0.3-0.2h9.6c0.2,0,0.3,0.1,0.3,0.3v22.8c0,0,0,0.1,0,0.1c0,0.1-0.4,0.8-0.7,1.1c-0.4,0.4-0.9,0.6-1.4,0.8
			C12.1,30.1,11.5,30.3,10.9,30.3C10.9,30.3,10.9,30.3,10.9,30.3z M9.5,29.4c0.1,0,0.1,0,0.1,0c0.5,0.2,0.9,0.2,1.3,0.2
			c0.5,0,1.1-0.1,1.6-0.3c0.4-0.1,0.8-0.3,1.1-0.7c0.2-0.2,0.4-0.6,0.5-0.9V5.4H5.1L2.9,10c0.2-0.1,0.5-0.3,0.7-0.4
			C4.2,9.3,4.9,9.1,5.8,9c0.8-0.1,1.6-0.2,2.6-0.2c0.1,0,0.2,0,0.3,0c0.9,0,1.8,0,2.6,0.2c0,0,0.1,0,0.1,0C11.6,9,12,9.1,12.2,9.3
			c0.3,0.4,0.4,1.2,0.4,1.4c0,0,0,0,0,0l-0.2,14.8c0,0,0,0,0,0c0,0.1-0.1,1-0.2,1.5c-0.2,0.6-0.5,1.1-0.9,1.4
			C10.8,28.9,10.1,29.2,9.5,29.4z"/>
	</g>
	<g>
		<path id="path879_00000103231134247670485040000006149137991434013075_" class="st2" d="M14.5,27.9V5.1h9.6l2.7,5.7
			c0,0-1-0.7-1.5-0.9c-0.7-0.3-1.4-0.5-2.1-0.6c-0.8-0.2-1.7-0.2-2.6-0.2c-0.9,0-1.9-0.1-2.8,0.2c-0.3,0.1-0.5,0.1-0.7,0.3
			c-0.3,0.3-0.3,1.2-0.3,1.2l0.2,14.8c0,0,0.1,1,0.2,1.4c0.2,0.5,0.4,1,0.8,1.3c0.5,0.5,1.3,0.8,2,0.9c0.3,0.1,1-0.1,1-0.1
			s-0.9,0.5-1.4,0.6C19,29.9,18.5,30,18.1,30c-0.6,0-1.2-0.1-1.7-0.3c-0.5-0.2-0.9-0.4-1.3-0.7C14.8,28.6,14.5,27.9,14.5,27.9
			L14.5,27.9z"/>
		<path d="M18.1,30.3C18.1,30.3,18.1,30.3,18.1,30.3c-0.7,0-1.3-0.1-1.9-0.4c-0.4-0.2-1-0.4-1.4-0.8c-0.3-0.3-0.6-1-0.7-1.1
			c0,0,0-0.1,0-0.1V5.1c0-0.2,0.1-0.3,0.3-0.3h9.6c0.1,0,0.2,0.1,0.3,0.2l2.7,5.7c0.1,0.1,0,0.3-0.1,0.4c-0.1,0.1-0.3,0.1-0.4,0
			c0,0-1-0.7-1.5-0.9c-0.6-0.2-1.2-0.4-2.1-0.6c-0.7-0.1-1.5-0.2-2.5-0.2c-0.1,0-0.2,0-0.3,0c-0.8,0-1.7,0-2.5,0.1c0,0-0.1,0-0.1,0
			c-0.2,0-0.4,0.1-0.5,0.2c-0.1,0.2-0.2,0.7-0.2,1l0.2,14.8c0,0.3,0.1,1,0.2,1.3c0.2,0.5,0.5,0.9,0.8,1.2c0.5,0.4,1.1,0.7,1.8,0.9
			c0.2,0,0.6,0,0.9-0.1c0.2,0,0.3,0.1,0.4,0.2c0.1,0.1,0,0.3-0.1,0.4c0,0-1,0.5-1.5,0.7C19,30.2,18.5,30.3,18.1,30.3z M14.8,27.8
			c0.1,0.3,0.4,0.7,0.5,0.9c0.3,0.3,0.8,0.5,1.1,0.7c0.5,0.2,1.1,0.3,1.6,0.3c0.4,0,0.8-0.1,1.3-0.2c0,0,0.1,0,0.1,0
			c-0.7-0.2-1.3-0.5-1.8-0.9c-0.4-0.3-0.7-0.8-0.9-1.4c-0.2-0.5-0.2-1.4-0.2-1.5c0,0,0,0,0,0l-0.2-14.8c0,0,0,0,0,0
			c0-0.2,0.1-1,0.4-1.4C17,9.1,17.4,9,17.6,8.9c0,0,0.1,0,0.1,0c0.9-0.2,1.8-0.2,2.6-0.2c0.1,0,0.2,0,0.3,0c1,0,1.9,0.1,2.6,0.2
			c0.9,0.2,1.6,0.4,2.2,0.6c0.2,0.1,0.4,0.2,0.7,0.4l-2.1-4.6h-9.1V27.8z"/>
	</g>
	<g>
		<path id="path883_00000074437154508192603210000000668358706730169229_" class="st2" d="M27.4,21.4L23.8,21l-1.5,3.3L20.8,21
			l-3.6,0.4l2.2-2.9l-2.2-2.9l3.6,0.4l1.5-3.3l1.5,3.3l3.6-0.4l-2.2,2.9L27.4,21.4z"/>
		<path d="M22.3,24.7c-0.1,0-0.2-0.1-0.3-0.2l-1.4-3.1l-3.4,0.4c-0.1,0-0.2,0-0.3-0.2c-0.1-0.1-0.1-0.2,0-0.3l2-2.8l-2-2.8
			c-0.1-0.1-0.1-0.2,0-0.3c0.1-0.1,0.2-0.2,0.3-0.2l3.4,0.4l1.4-3.1c0-0.1,0.2-0.2,0.3-0.2c0.1,0,0.2,0.1,0.3,0.2l1.4,3.1l3.4-0.4
			c0.1,0,0.2,0,0.3,0.2c0.1,0.1,0.1,0.2,0,0.3l-2,2.8l2,2.8c0.1,0.1,0.1,0.2,0,0.3c-0.1,0.1-0.2,0.2-0.3,0.2L24,21.4l-1.4,3.1
			C22.5,24.6,22.4,24.7,22.3,24.7z M20.8,20.7c0.1,0,0.2,0.1,0.3,0.2l1.2,2.7l1.2-2.7c0.1-0.1,0.2-0.2,0.3-0.2l2.9,0.3L25,18.7
			c-0.1-0.1-0.1-0.3,0-0.4l1.7-2.4l-2.9,0.3c-0.1,0-0.3-0.1-0.3-0.2l-1.2-2.7l-1.2,2.7c-0.1,0.1-0.2,0.2-0.3,0.2l-2.9-0.3l1.7,2.4
			c0.1,0.1,0.1,0.3,0,0.4l-1.7,2.4L20.8,20.7C20.8,20.7,20.8,20.7,20.8,20.7z"/>
	</g>
	<g>
		<path id="path885_00000101077152711681583440000006375335826367522998_" class="st1" d="M11.8,21.4L8.2,21l-1.5,3.3L5.2,21
			l-3.6,0.4l2.2-2.9l-2.2-2.9l3.6,0.4l1.5-3.3l1.5,3.3l3.6-0.4l-2.2,2.9L11.8,21.4z"/>
		<path d="M6.7,24.7c-0.1,0-0.2-0.1-0.3-0.2L5,21.4l-3.4,0.4c-0.1,0-0.2,0-0.3-0.2c-0.1-0.1-0.1-0.2,0-0.3l2-2.8l-2-2.8
			c-0.1-0.1-0.1-0.2,0-0.3c0.1-0.1,0.2-0.2,0.3-0.2L5,15.6l1.4-3.1c0-0.1,0.2-0.2,0.3-0.2c0.1,0,0.2,0.1,0.3,0.2l1.4,3.1l3.4-0.4
			c0.1,0,0.2,0,0.3,0.2c0.1,0.1,0.1,0.2,0,0.3l-2,2.8l2,2.8c0.1,0.1,0.1,0.2,0,0.3c-0.1,0.1-0.2,0.2-0.3,0.2l-3.4-0.4L7,24.5
			C6.9,24.6,6.8,24.7,6.7,24.7z M5.2,20.7c0.1,0,0.2,0.1,0.3,0.2l1.2,2.7l1.2-2.7c0.1-0.1,0.2-0.2,0.3-0.2l2.9,0.3l-1.7-2.4
			c-0.1-0.1-0.1-0.3,0-0.4l1.7-2.4l-2.9,0.3c-0.1,0-0.3-0.1-0.3-0.2l-1.2-2.7l-1.2,2.7c-0.1,0.1-0.2,0.2-0.3,0.2l-2.9-0.3L4,18.3
			c0.1,0.1,0.1,0.3,0,0.4l-1.7,2.4L5.2,20.7C5.2,20.7,5.2,20.7,5.2,20.7z"/>
	</g>
</g>
</svg>
