<?xml version="1.0" encoding="utf-8"?>
<!-- Generator: Adobe Illustrator 26.3.1, SVG Export Plug-In . SVG Version: 6.00 Build 0)  -->
<svg version="1.1" id="Layer_1" xmlns="http://www.w3.org/2000/svg" xmlns:xlink="http://www.w3.org/1999/xlink" x="0px" y="0px"
	 viewBox="0 0 29 36.2" style="enable-background:new 0 0 29 36.2;" xml:space="preserve">
<style type="text/css">
	.st0{fill:#01A0E2;}
	.st1{fill:#219B3C;}
	.st2{fill:#FFFFFF;}
	.st3{fill:#424242;}
	.st4{fill:#FFFFFF;fill-opacity:0;}
	.st5{fill:#8FBC8F;}
	.st6{fill:#717275;}
	.st7{fill:#075313;}
</style>
<g id="layer1_00000074432380590875329700000008381089647067625632_" transform="translate(0.06614581,-32.69271)">
	<g>
		<path id="path3982_00000034054301692903170040000018369264938155726249_" class="st0" d="M1.5,34.8v26.5c0,1.4,0.2,3.8,3.4,3.8
			h7.4c1.5,0,2.1,1.6,2.1,1.6s0.6-1.6,2.1-1.6h7.4c3.2,0,3.4-2.4,3.4-3.8V34.8H1.5z"/>
		<path d="M14.4,66.8L14.4,66.8c0,0-0.1,0-0.1-0.1c0-0.1-0.6-1.5-2-1.5H5c-1.4,0-2.5-0.5-3-1.4C1.5,63,1.4,62,1.4,61.4V34.8
			c0-0.1,0.1-0.1,0.1-0.1h25.8c0.1,0,0.1,0.1,0.1,0.1v26.5c0,0.7-0.1,1.7-0.5,2.5c-0.6,0.9-1.6,1.4-3,1.4h-7.4c-1.4,0-2,1.4-2,1.5
			C14.5,66.8,14.5,66.8,14.4,66.8z M1.7,35v26.4C1.7,62.9,2,65,5,65h7.4c1.2,0,1.8,1,2.1,1.4c0.2-0.4,0.9-1.4,2.1-1.4h7.4
			c3,0,3.3-2.1,3.3-3.7V35H1.7z"/>
	</g>
	<g>
		<path id="rect4030_00000170258716213230654820000000078543141255650723_" class="st1" d="M1.5,59.9v1.5c0,1.4,0.2,3.8,3.4,3.8h7.4
			c1.5,0,2.1,1.6,2.1,1.6s0.6-1.6,2.1-1.6h7.4c3.2,0,3.4-2.4,3.4-3.8v-1.5H1.5z"/>
		<path d="M14.4,66.8L14.4,66.8c0,0-0.1,0-0.1-0.1c0-0.1-0.6-1.5-2-1.5H5c-1.4,0-2.5-0.5-3-1.4C1.5,63,1.4,62,1.4,61.4v-1.5
			c0-0.1,0.1-0.1,0.1-0.1h25.8c0.1,0,0.1,0.1,0.1,0.1v1.5c0,0.7-0.1,1.7-0.5,2.5c-0.6,0.9-1.6,1.4-3,1.4h-7.4c-1.4,0-2,1.4-2,1.5
			C14.5,66.8,14.5,66.8,14.4,66.8z M1.7,60v1.4C1.7,62.9,2,65,5,65h7.4c1.2,0,1.8,1,2.1,1.4c0.2-0.4,0.9-1.4,2.1-1.4h7.4
			c3,0,3.3-2.1,3.3-3.7V60H1.7z"/>
	</g>
	<g>
		
			<rect id="rect4035_00000145050005364896677900000014432935573522239677_" x="12.4" y="53.6" class="st2" width="4.3" height="6.3"/>
		<path d="M16.7,59.9h-4.3c0,0-0.1,0-0.1-0.1v-6.3c0,0,0-0.1,0.1-0.1h4.3c0,0,0.1,0,0.1,0.1L16.7,59.9
			C16.8,59.9,16.7,59.9,16.7,59.9z M12.4,59.8h4.2v-6.2h-4.2V59.8z"/>
	</g>
	<g>
		<path id="path3419_00000085964882225425896710000008247180896961720214_" class="st3" d="M16.5,45.7c0.8-0.6,0.1-2.3,1.1-2.8
			c1.6-0.6,2.9,0.1,2.2,1.6c-0.4,0.9-1.4,1.9-2.1,2.4c-0.1,0-0.2,0.2-0.3,0.3c-0.1,0.3-1.1,2.2-1.2,2.2c-1.9,0-1.8-1.3-5.4,0.7
			c0.5-0.8,2.2-2.4,2-3.4c-0.1-0.4-0.8,0.3-0.9,0.3c0,0-0.1-0.6-0.4-0.6c-0.3,0-0.5,0.3-0.9,0.7c0-0.3,0-0.6-0.2-0.6
			c-0.3,0-1.3,0.7-1.6,0.9c0.1-0.2,0.3-1-0.1-0.8c-0.6,0.3-1.3,0.8-1.9,0.9c0.9-1.2,3.3-5.2,5-4.8c1,0.2,1.8,2.5,2.9,1
			c0.4-0.7-0.2-1.6-0.8-0.7c-0.2-0.6,0.3-0.6,0.5-1c0.5-1.2,1.5-0.9,2,0.5C16.8,43.9,16.3,44.8,16.5,45.7"/>
		<path d="M10.6,50.5l0.1-0.2c0.1-0.3,0.4-0.6,0.7-1c0.6-0.8,1.4-1.8,1.3-2.4c0,0,0-0.1,0-0.1c-0.1,0-0.5,0.2-0.6,0.3
			c-0.1,0-0.1,0.1-0.2,0.1l0,0l-0.1,0c0,0-0.1,0-0.1-0.1c0-0.3-0.2-0.5-0.3-0.5c-0.2,0-0.3,0.1-0.6,0.4c-0.1,0.1-0.2,0.2-0.3,0.3
			l-0.1,0.1l0-0.2c0-0.2,0-0.4,0-0.5c0,0,0,0,0,0c-0.2,0-0.9,0.4-1.3,0.7c-0.1,0.1-0.2,0.2-0.3,0.2l-0.2,0.1l0.1-0.2
			c0.1-0.3,0.2-0.6,0.1-0.7c0,0-0.1,0-0.1,0c-0.2,0.1-0.3,0.2-0.5,0.3c-0.5,0.3-1,0.5-1.4,0.6l-0.2,0l0.1-0.1
			c0.1-0.1,0.2-0.3,0.3-0.5c1.1-1.7,3.2-4.7,4.7-4.4c0.4,0.1,0.7,0.4,1.1,0.8c0.4,0.4,0.7,0.7,1.1,0.7c0.2,0,0.4-0.2,0.6-0.5
			c0.2-0.3,0.2-0.6,0.1-0.8c-0.1-0.1-0.2-0.2-0.3-0.2c-0.1,0-0.3,0.1-0.5,0.3l-0.1,0.1l0-0.1c-0.1-0.4,0.1-0.6,0.3-0.8
			c0.1-0.1,0.2-0.1,0.2-0.2c0.2-0.5,0.6-0.8,0.9-0.8c0.5,0,0.9,0.5,1.2,1.3c0.2,0.7,0.2,1.3,0.1,1.9c0,0.4-0.1,0.8,0,1.1
			c0.2-0.3,0.3-0.7,0.3-1.2c0.1-0.6,0.1-1.3,0.7-1.5c0.9-0.4,1.7-0.3,2.2,0.1c0.4,0.4,0.4,0.9,0.1,1.6c-0.4,0.8-1.3,1.8-2.1,2.4l0,0
			l0,0c-0.1,0-0.1,0.1-0.2,0.1c0,0-0.1,0.1-0.1,0.1c-0.1,0.2-0.3,0.7-0.6,1.2c-0.5,1-0.6,1-0.7,1c-0.6,0-1-0.1-1.3-0.2
			c-0.8-0.3-1.5-0.5-4.1,0.9L10.6,50.5z M12.6,46.7C12.6,46.7,12.7,46.7,12.6,46.7c0.1,0,0.2,0.1,0.2,0.2c0.2,0.7-0.6,1.7-1.3,2.6
			c-0.2,0.3-0.4,0.5-0.6,0.7c2.4-1.3,3.1-1.1,3.9-0.8c0.4,0.1,0.7,0.2,1.3,0.2c0.2-0.2,1-1.9,1.2-2.2l0,0l0,0c0,0,0.1-0.1,0.1-0.1
			c0.1-0.1,0.1-0.2,0.2-0.2c0.8-0.6,1.7-1.6,2-2.4c0.3-0.6,0.2-1.1-0.1-1.4c-0.4-0.4-1.2-0.5-2-0.1c-0.5,0.2-0.6,0.8-0.6,1.4
			c0,0.5-0.1,1.1-0.5,1.3l-0.1,0.1l0-0.1c-0.1-0.4,0-0.8,0-1.3c0.1-0.6,0.1-1.2-0.1-1.8c-0.2-0.7-0.7-1.2-1.1-1.2
			c-0.3,0-0.6,0.2-0.8,0.7l0,0c-0.1,0.1-0.2,0.2-0.3,0.3c-0.2,0.1-0.3,0.2-0.3,0.5c0.2-0.2,0.4-0.3,0.5-0.3c0.2,0,0.3,0.1,0.4,0.3
			c0.1,0.2,0.1,0.6-0.1,0.9c-0.2,0.4-0.5,0.5-0.7,0.6c-0.4,0-0.8-0.3-1.2-0.7c-0.3-0.3-0.7-0.7-1-0.7c-1.5-0.3-3.6,2.8-4.6,4.3
			C7,47.4,7,47.5,6.9,47.6c0.4-0.1,0.8-0.4,1.2-0.6c0.2-0.1,0.3-0.2,0.5-0.3c0.1-0.1,0.2-0.1,0.3,0c0.1,0.1,0.1,0.4,0,0.7
			c0,0,0.1-0.1,0.1-0.1c0.6-0.4,1.1-0.7,1.4-0.7c0.1,0,0.1,0,0.1,0.1c0.1,0.1,0.1,0.3,0.1,0.4c0.1-0.1,0.1-0.1,0.2-0.2
			c0.2-0.2,0.4-0.4,0.7-0.4c0.1,0,0.3,0.1,0.4,0.5c0,0,0.1,0,0.1-0.1C12.2,46.8,12.4,46.7,12.6,46.7z M16.1,49.5L16.1,49.5
			L16.1,49.5z"/>
	</g>
	<g>
		<path id="rect3476_00000134238565969995569670000007951978804749027730_" class="st2" d="M12.5,48.5v0.6v2.8h0.6h0.5h0.6h0.4h0.6
			h0.5h0.6v-2.8v-0.6h-0.6v0.6h-0.5v-0.6h-0.6v0.6h-0.4v-0.6h-0.6v0.6h-0.5v-0.6H12.5z"/>
		<path d="M16.6,52h-4.1v-3.5h0.8v0.6h0.4v-0.6h0.8v0.6h0.3v-0.6h0.8v0.6h0.3v-0.6h0.8V52z M12.6,51.9h3.8v-3.3h-0.5v0.6h-0.6v-0.6
			h-0.5v0.6h-0.6v-0.6h-0.5v0.6h-0.6v-0.6h-0.5V51.9z"/>
	</g>
	<g>
		<path id="path4037_00000156589057651930023890000002516375203851193518_" class="st4" d="M12.5,49.2h4"/>
		<rect x="12.5" y="49.2" width="4" height="0.1"/>
	</g>
	<path d="M15.3,51.6h-1.6v-1.8l0.8-0.6l0.8,0.6V51.6z M13.9,51.5h1.3v-1.6l-0.7-0.5l-0.7,0.5V51.5z"/>
	<path id="path3496_00000016038991842672525990000001741845242978978196_" d="M14.5,49.6L14,50v1.5h1V50L14.5,49.6z"/>
	<circle id="path3498_00000137123338749226753910000017934977766728312970_" cx="13.1" cy="49.7" r="0.3"/>
	<circle id="circle3500_00000117647120920576492920000010329568781184124565_" cx="16" cy="49.7" r="0.3"/>
	<g>
		
			<rect id="rect3552_00000181772320910095500590000004700672844663248549_" x="13.3" y="57.5" class="st2" width="2.5" height="0.7"/>
		<path d="M15.8,58.2h-2.6v-0.8h2.6V58.2z M13.3,58.1h2.4v-0.6h-2.4V58.1z"/>
	</g>
	<path class="st5" d="M16.7,59.9h-4.3c0,0-0.1,0-0.1-0.1v-6.3c0,0,0-0.1,0.1-0.1h4.3c0,0,0.1,0,0.1,0.1L16.7,59.9
		C16.8,59.9,16.7,59.9,16.7,59.9z M12.4,59.8h4.2v-6.2h-4.2V59.8z"/>
	<g>
		<path id="rect3554_00000050659410434914922490000000380608030180970415_" class="st2" d="M14.1,55.4v0.5h0.3v0.7h0.5v-0.7H15v-0.5
			H14.1z"/>
		<path d="M14.8,56.5h-0.5v-0.7H14v-0.5h1v0.5h-0.3V56.5z M14.3,56.5h0.4v-0.7H15v-0.4h-0.9v0.4h0.3V56.5z"/>
	</g>
	<g>
		<path id="path3550_00000052068177710958253920000005649196287922061707_" class="st2" d="M14.5,56.1c-0.5,0-0.7,0.2-0.7,0.2v3.6
			h1.5v-3.6C15.3,56.3,15.1,56.1,14.5,56.1L14.5,56.1z"/>
		<path d="M15.3,59.9h-1.6v-3.6l0,0c0,0,0.2-0.2,0.8-0.2c0.5,0,0.8,0.2,0.8,0.2l0,0V59.9z M13.8,59.8h1.4v-3.5
			c-0.1,0-0.3-0.2-0.7-0.2c-0.4,0-0.7,0.2-0.7,0.2V59.8z"/>
	</g>
	<path id="rect3545_00000070800331464894712800000012941867259676472713_" d="M14.5,56.4c-0.3,0-0.4,0.2-0.4,0.2v3.3H15v-3.3
		C15,56.6,14.8,56.4,14.5,56.4L14.5,56.4z"/>
	<path d="M16.8,59.9h-4.5v-6.4h4.5V59.9z M12.4,59.8h4.2v-6.2h-4.2V59.8z"/>
	
		<g id="g3749_00000165927113037526166610000001126996727562870159_" transform="matrix(3.6904876,0,0,3.6904876,0.85647604,33.615332)">
		<g id="g3721_00000123405886019634428710000010327729496476418437_">
			<g>
				<path id="path3537_00000130617489960326665830000009850495109694925490_" class="st2" d="M2.2,5.3v0.7l-0.3,0l0-0.7L2.2,5.3z"/>
				<path d="M1.9,5.9C1.9,5.9,1.9,5.9,1.9,5.9C1.9,5.9,1.9,5.9,1.9,5.9l0-0.7c0,0,0,0,0,0h0.2c0,0,0,0,0,0v0.7c0,0,0,0,0,0L1.9,5.9
					C1.9,5.9,1.9,5.9,1.9,5.9z M1.9,5.3l0,0.7l0.2,0V5.3H1.9z"/>
			</g>
			<g>
				<path id="path3533_00000136396576219560394390000013242744322693458094_" class="st2" d="M1.8,5.1L1.7,5.3v0.7h0.2V5.3L1.8,5.1z
					"/>
				<path d="M1.9,5.9H1.7c0,0,0,0,0,0V5.3c0,0,0,0,0,0l0.1-0.2c0,0,0,0,0,0c0,0,0,0,0,0l0.1,0.2c0,0,0,0,0,0L1.9,5.9
					C1.9,5.9,1.9,5.9,1.9,5.9z M1.7,5.9h0.2V5.3L1.8,5.1L1.7,5.3V5.9z"/>
			</g>
			<g>
				<path id="path3535_00000121278171506074426630000014741864349723054252_" class="st2" d="M1.8,5.1H2l0.1,0.2H1.9L1.8,5.1z"/>
				<path d="M2.2,5.3H1.9c0,0,0,0,0,0L1.8,5.1c0,0,0,0,0,0c0,0,0,0,0,0H2c0,0,0,0,0,0L2.2,5.3C2.2,5.3,2.2,5.3,2.2,5.3
					C2.2,5.3,2.2,5.3,2.2,5.3z M1.9,5.2h0.2L2,5.1H1.8L1.9,5.2z"/>
			</g>
			<polygon id="rect3539_00000121995129846867739080000005952695467886329527_" points="1.7,5.3 1.8,5.3 1.8,5.3 1.8,5.4 1.8,5.4 
				1.7,5.4 1.7,5.4 1.7,5.3 			"/>
			<polygon id="rect3541_00000016039910689570039830000017253784773931370395_" points="1.8,5.3 1.9,5.3 1.9,5.3 1.9,5.4 1.9,5.4 
				1.8,5.4 1.8,5.4 1.8,5.3 			"/>
		</g>
		<g>
			
				<rect id="rect3442_00000128444423022268156100000017992540437598427562_" x="0.4" y="5.8" class="st2" width="0.7" height="1.3"/>
			<path d="M1.1,7.1H0.4c0,0,0,0,0,0V5.8c0,0,0,0,0,0h0.7c0,0,0,0,0,0L1.1,7.1C1.1,7.1,1.1,7.1,1.1,7.1z M0.4,7.1h0.7V5.9H0.4V7.1z"
				/>
		</g>
		<g>
			
				<rect id="rect3444_00000075161652410074047150000015001992083491205778_" x="0.4" y="5.7" class="st2" width="0.8" height="0.2"/>
			<path d="M1.1,5.9H0.4c0,0,0,0,0,0V5.7c0,0,0,0,0,0h0.8c0,0,0,0,0,0L1.1,5.9C1.1,5.9,1.1,5.9,1.1,5.9z M0.4,5.9h0.7V5.7H0.4V5.9z"
				/>
		</g>
		<g>
			<path id="path3455_00000019660373961190938480000012404360338067096986_" class="st2" d="M0.7,4.1L0.5,4.8L0.3,5.4h0.4h0.4L1,4.8
				L0.7,4.1z"/>
			<path d="M1.2,5.4H0.3c0,0,0,0,0,0c0,0,0,0,0,0l0.4-1.3c0,0,0,0,0,0L1.2,5.4C1.2,5.4,1.2,5.4,1.2,5.4C1.2,5.4,1.2,5.4,1.2,5.4z
				 M0.3,5.4h0.9L0.7,4.1L0.3,5.4z"/>
		</g>
		<g>
			<path id="path3504_00000036220810598832840260000013657799614919210150_" class="st2" d="M3,4.7L2.9,4.8V5L2.7,5.2V5L2.4,5.2v0.2
				L2.2,5.6V5.4L2,5.5v0.2L1.7,5.9V5.7L1.5,5.9v0.2L1.3,6.3V6.1L1.1,6.2l0,0.9h2V5.4L3,4.7z"/>
			<path d="M3.1,7.1h-2c0,0,0,0,0,0c0,0,0,0,0,0l0-0.9c0,0,0,0,0,0L1.3,6c0,0,0,0,0,0c0,0,0,0,0,0v0.2L1.5,6V5.9c0,0,0,0,0,0
				l0.2-0.1c0,0,0,0,0,0c0,0,0,0,0,0v0.2L2,5.7V5.5c0,0,0,0,0,0l0.2-0.1c0,0,0,0,0,0c0,0,0,0,0,0v0.2l0.2-0.2V5.2c0,0,0,0,0,0L2.6,5
				c0,0,0,0,0,0c0,0,0,0,0,0v0.2L2.9,5V4.8c0,0,0,0,0,0L3,4.7c0,0,0,0,0,0c0,0,0,0,0,0l0.1,0.7c0,0,0,0,0,0L3.1,7.1
				C3.1,7.1,3.1,7.1,3.1,7.1z M1.1,7.1h2V5.4L3,4.8L2.9,4.8V5c0,0,0,0,0,0L2.7,5.2c0,0,0,0,0,0c0,0,0,0,0,0V5L2.5,5.2v0.2
				c0,0,0,0,0,0L2.2,5.6c0,0,0,0,0,0c0,0,0,0,0,0V5.4L2,5.5v0.2c0,0,0,0,0,0L1.7,5.9c0,0,0,0,0,0c0,0,0,0,0,0V5.7L1.6,5.9v0.2
				c0,0,0,0,0,0L1.3,6.3c0,0,0,0,0,0c0,0,0,0,0,0V6.1L1.1,6.2L1.1,7.1z"/>
		</g>
		<circle id="path3519_00000168816879450619289110000002467295335768323497_" cx="1.5" cy="6.3" r="0.1"/>
		<circle id="circle3521_00000036971125310236806800000015908681586754371001_" cx="2.2" cy="5.8" r="0.1"/>
		<circle id="circle3523_00000182528665705719918950000007842959090674071954_" cx="2.8" cy="5.3" r="0.1"/>
		<circle id="circle3525_00000126301657049978891510000001078473514069854387_" cx="0.6" cy="6.1" r="0.1"/>
		<circle id="circle3529_00000033351532578399387750000004482061507228731824_" cx="0.9" cy="6.1" r="0.1"/>
		<g>
			<path id="path3543_00000100362630974186627680000013035922455894849427_" class="st2" d="M2.4,5.2l0.1-0.7L2.7,5"/>
			<path d="M2.4,5.2L2.4,5.2l0.1-0.7c0,0,0,0,0,0c0,0,0,0,0,0L2.7,5l0,0L2.5,4.6L2.4,5.2z"/>
		</g>
		<g>
			<path id="rect3446_00000051343932484157650420000004893083759462682538_" class="st2" d="M0.3,5.2v0.2v0.3h0.2h0.2h0.2H1h0.2V5.4
				V5.2H1v0.2H0.8V5.2H0.7v0.2H0.5V5.2H0.3z"/>
			<path d="M1.2,5.7H0.3c0,0,0,0,0,0V5.2c0,0,0,0,0,0h0.2c0,0,0,0,0,0v0.1h0.1V5.2c0,0,0,0,0,0h0.2c0,0,0,0,0,0v0.1H1V5.2
				c0,0,0,0,0,0h0.2c0,0,0,0,0,0L1.2,5.7C1.2,5.7,1.2,5.7,1.2,5.7z M0.3,5.6h0.8V5.2H1v0.1c0,0,0,0,0,0H0.8c0,0,0,0,0,0V5.2H0.7v0.1
				c0,0,0,0,0,0H0.5c0,0,0,0,0,0V5.2H0.3V5.6z"/>
		</g>
		<g>
			<path id="path3987_00000075128500560903897190000006275457307960950459_" class="st6" d="M3.1,5.4L1.1,7v0.1h0.2l1.8-1.5V5.4z"/>
			<path d="M1.3,7.1H1.1c0,0,0,0,0,0V7c0,0,0,0,0,0l2-1.6c0,0,0,0,0,0c0,0,0,0,0,0v0.2c0,0,0,0,0,0L1.3,7.1C1.3,7.1,1.3,7.1,1.3,7.1
				z M1.1,7.1h0.2l1.8-1.5V5.4L1.1,7.1L1.1,7.1z"/>
		</g>
	</g>
	<g>
		<path id="rect3461_00000029047376788803955570000002884669416306693818_" class="st2" d="M12,50.9c0,0.7,0,1.4,0,2.2h0.6h0.8h0.6
			H15h0.6h0.8h0.6c0-0.7,0-1.4,0-2.2h-0.6v0.5h-0.8v-0.5H15v0.5h-0.9v-0.5h-0.6v0.5h-0.8v-0.5H12z"/>
		<path d="M17.2,53.1H12v-2.3h0.8v0.5h0.6v-0.5h0.8v0.5h0.8v-0.5h0.8v0.5h0.7v-0.5h0.8V53.1z M12.1,53H17v-2h-0.5v0.5h-1V51H15v0.5
			h-1V51h-0.5v0.5h-0.9V51h-0.5V53z"/>
	</g>
	<g>
		<rect id="rect3459_00000080888946522015623830000017824184449713725613_" x="12.2" y="53" class="st2" width="4.6" height="0.5"/>
		<path d="M16.9,53.6h-4.7V53h4.7V53.6z M12.3,53.5h4.5v-0.4h-4.5V53.5z"/>
	</g>
	<path id="path3911_00000160870460453018962030000002881867680978271660_" class="st7" d="M5.8,60c0,0.1-0.1,0.2-0.2,0.4
		c-0.2,0.3-0.2,0.4,0,0.5c0.1,0.1,0.1,0,0.1,0c-0.1-0.1,0.2-0.5,0.4-0.4c0,0,0.1,0,0.1-0.2c-0.1,0,0.1-0.1,0.2-0.1
		c0,0-0.1-0.1-0.1-0.2C6,60,6.1,60,5.8,60L5.8,60z M20.3,60.3c-0.2,0-0.7,0.4-0.7,0.6c0,0.1,0.1,0,0.3-0.1c0.1-0.1,0.3-0.2,0.4-0.2
		c0.1,0,0.2-0.1,0.2-0.1C20.4,60.4,20.4,60.3,20.3,60.3L20.3,60.3z M19.5,60.3c-0.1,0-0.2,0-0.6,0.2c-0.3,0.1-0.6,0.2-0.6,0.1
		c-0.1-0.1-2.2,0.4-2.4,0.6c-0.1,0.1-0.3,0.1-0.6,0.1c-0.5,0-0.5,0-0.2,0.1c0.2,0.1,0.4,0.1,0.5,0c0.1,0,0.6-0.2,1.3-0.4
		c0.8-0.2,1.1-0.3,1-0.1c-0.1,0.2-0.1,0.2,0.2,0.1c1.2-0.4,1.5-0.5,1.5-0.6C19.6,60.4,19.6,60.4,19.5,60.3L19.5,60.3z M16.8,60.4
		c-0.1,0-0.2,0-0.4,0.1c-0.2,0.1-0.6,0.2-0.9,0.3c-0.3,0-0.4,0.1-0.4,0.2C15.4,61.3,16.9,60.7,16.8,60.4
		C16.9,60.5,16.9,60.4,16.8,60.4L16.8,60.4z M21.4,60.5c-0.3,0-1.1,0.3-1.1,0.4c0,0.1,0,0.1,0.7-0.1C21.4,60.7,21.6,60.6,21.4,60.5
		C21.5,60.6,21.4,60.5,21.4,60.5L21.4,60.5z M8.9,61c0,0-0.1,0.1-0.1,0.2c0,0.3,0.1,0.4,0.2,0.1C9.1,61.1,9.1,61,8.9,61
		C9,61,8.9,61,8.9,61L8.9,61z M24.5,61c-0.1,0-0.3,0.1-0.5,0.2c-0.2,0.2-0.2,0.2,0,0.4c0.3,0.2,0.3,0.2,0.2,0c0-0.1,0-0.2,0.1-0.2
		c0.1,0,0.2-0.1,0.2-0.2C24.6,61.1,24.5,61.1,24.5,61L24.5,61z M26.3,61.4c0,0-0.1,0-0.2,0.1c-0.2,0.1-0.3,0.3-0.3,0.4
		c0,0.2,0.2,0.1,0.4-0.1C26.3,61.6,26.3,61.4,26.3,61.4L26.3,61.4z M19.1,61.5C19.1,61.5,19,61.5,19.1,61.5
		c-0.1,0.1-0.2,0.2-0.1,0.2c0.1,0.2,0.2,0.2,0.2-0.1C19.2,61.6,19.1,61.5,19.1,61.5L19.1,61.5z M3.4,61.6c-0.2,0-0.3,0.1-0.3,0.1
		c0,0.1,0.1,0.1,0.3,0.1c0.2,0,0.3-0.1,0.3-0.1C3.7,61.7,3.6,61.6,3.4,61.6z M15.8,62c-0.1,0-0.1,0.1,0,0.2c0.2,0.3,0.3,0.4,0.3,0.1
		c0-0.1-0.1-0.2-0.2-0.3C15.9,62,15.9,62,15.8,62L15.8,62z M17.2,62C17.2,62,17.2,62,17.2,62c-0.2,0.1-0.2,0.5,0,0.5
		c0.1,0,0.2,0.1,0.2,0.1c0,0,0-0.1-0.1-0.3C17.3,62.1,17.2,62,17.2,62L17.2,62z M23.1,62.1c-0.2,0-0.5,0.1-0.7,0.2
		c-0.1,0.1-0.3,0.1-0.4,0c-0.4-0.2-0.5-0.1-0.2,0.3c0.1,0.2,0.3,0.3,0.3,0.3C22.4,62.8,23.2,62.2,23.1,62.1
		C23.2,62.1,23.1,62.1,23.1,62.1L23.1,62.1z M20.6,62.1c-0.1,0-0.2,0.4-0.1,0.6c0.1,0.1,0.1,0.3,0.1,0.4c0,0.1,0,0.1,0.1,0
		c0.1-0.1,0.1-0.2,0-0.4c-0.1-0.2-0.1-0.3,0.1-0.2c0.1,0,0.2,0,0.2-0.1c0-0.1,0.1-0.1,0.2-0.1c0.1,0.1,0.1,0,0-0.2
		c-0.1-0.2-0.2-0.2-0.3-0.1c0,0.1-0.1,0.1-0.2,0C20.7,62.1,20.6,62.1,20.6,62.1L20.6,62.1z M25.4,62.1
		C25.4,62.1,25.3,62.1,25.4,62.1c-0.1,0.1-0.2,0.3-0.2,0.5c0,0.4,0.1,0.4,0.2-0.2C25.4,62.2,25.4,62.1,25.4,62.1L25.4,62.1z
		 M4.4,62.2c-0.1,0-0.1,0.1-0.1,0.2c0,0.1,0.1,0.2,0.1,0.2c0.1,0,0.1-0.1,0.1-0.2C4.6,62.3,4.5,62.2,4.4,62.2z M17.5,62.2
		c-0.1,0,0,0.1,0.1,0.3c0.1,0.2,0.3,0.3,0.3,0.2C18.1,62.6,17.7,62.2,17.5,62.2L17.5,62.2z M5.1,62.2c-0.1,0-0.2,0.1-0.3,0.3
		c-0.1,0.2-0.1,0.3-0.1,0.4c0,0.2,0.2,0,0.4-0.3C5.2,62.3,5.2,62.2,5.1,62.2L5.1,62.2z M23.6,62.3c-0.1,0-0.2,0.2-0.3,0.4
		c-0.1,0.3-0.1,0.3,0,0.3C23.6,62.9,23.8,62.3,23.6,62.3L23.6,62.3z M9.7,62.4c0,0,0,0.1,0,0.2c0,0.2,0.1,0.3,0.1,0.3
		c0.2,0,0.2-0.2,0-0.4C9.8,62.4,9.8,62.4,9.7,62.4L9.7,62.4z M3.8,62.5C3.8,62.5,3.7,62.5,3.8,62.5c-0.1,0-0.1,0.2,0,0.4
		c0.1,0.2,0.1,0.3,0.2,0.2c0,0,0-0.2,0-0.4C3.9,62.6,3.8,62.5,3.8,62.5L3.8,62.5z M10.9,62.5c-0.1,0-0.1,0.1-0.1,0.2
		c0,0.1,0.1,0.2,0.1,0.2c0.1,0,0.1-0.1,0.1-0.1S11.1,62.6,10.9,62.5C11,62.5,11,62.5,10.9,62.5L10.9,62.5z M11.9,62.5
		c-0.1,0-0.1,0.1-0.1,0.2c0,0.1,0.1,0.2,0.1,0.2c0.1,0,0.1-0.1,0.1-0.1C12.1,62.7,12.1,62.6,11.9,62.5C12,62.5,12,62.5,11.9,62.5
		L11.9,62.5z M15.5,62.6c-0.2,0-0.2,0,0,0.1c0.3,0.2,0.5,0.2,0.4,0C15.7,62.7,15.6,62.6,15.5,62.6z M16.3,62.6c-0.1,0-0.1,0-0.2,0.1
		c-0.1,0.1-0.1,0.2,0.2,0.2s0.3,0,0.2-0.2C16.4,62.7,16.3,62.6,16.3,62.6z M14.2,62.7c0,0,0,0.1,0,0.1c0,0.2,0,0.2,0.1,0.2
		C14.3,63,14.3,62.8,14.2,62.7C14.2,62.7,14.2,62.7,14.2,62.7L14.2,62.7z M16.8,62.9c0,0-0.1,0-0.1,0c-0.1,0-0.1,0.2-0.1,0.3
		c0,0.2,0,0.2,0.1,0C16.9,63.1,16.9,63,16.8,62.9L16.8,62.9z M17.4,63c-0.1,0-0.1,0-0.3,0.1c-0.1,0.1-0.2,0.3-0.2,0.3
		c0.1,0,0.1,0,0.2-0.1c0-0.1,0.1-0.2,0.2-0.2s0.1,0.1,0,0.2c0,0.1,0,0.2,0.1,0.2c0.1,0,0.2-0.1,0.2-0.2c0-0.1,0.1-0.1,0.2,0
		s0.1,0-0.1-0.2C17.5,63.1,17.4,63,17.4,63L17.4,63z M15.2,63c-0.1,0-0.3,0.1-0.5,0.3c-0.1,0.2-0.3,0.2-0.4,0.2c-0.1,0-0.1,0,0,0.2
		s0.1,0.2,0.2,0.2C14.6,63.9,15.3,63.2,15.2,63C15.3,63.1,15.3,63.1,15.2,63L15.2,63z M19,63.2c0,0-0.1,0.1-0.1,0.2
		c0,0.1,0,0.2,0.1,0.2c0.1,0,0.1-0.1,0.1-0.2C19,63.3,19,63.2,19,63.2z M25.9,63.2c0,0-0.1,0.1-0.3,0.2c-0.2,0.1-0.3,0.3-0.3,0.4
		c0,0.1,0.1,0,0.3-0.2C25.8,63.5,25.9,63.3,25.9,63.2C25.9,63.2,25.9,63.2,25.9,63.2L25.9,63.2z M7.7,63.4c-0.1,0-0.3,0.3-0.3,0.6
		c0,0.2,0,0.2,0.1,0c0-0.1,0.2-0.3,0.2-0.3C7.8,63.5,7.9,63.4,7.7,63.4C7.8,63.4,7.8,63.4,7.7,63.4L7.7,63.4z M9.6,63.4
		C9.6,63.4,9.6,63.4,9.6,63.4c-0.2,0.1-0.2,0.3-0.2,0.4c0.1,0.3,0.2,0.3,0.2-0.2C9.7,63.5,9.7,63.4,9.6,63.4L9.6,63.4z M25,63.4
		c0,0-0.1,0-0.2,0.1c-0.1,0.1-0.2,0.2-0.2,0.3c0,0.1,0.1,0.1,0.1,0.1s0.1-0.1,0.1-0.2c0-0.1,0.1-0.1,0.1-0.1c0.1,0.1,0.1,0,0.1-0.1
		C25.1,63.5,25,63.4,25,63.4L25,63.4z M20,63.5c-0.1,0,0,0.2,0.1,0.4c0.1,0.2,0.2,0.4,0.1,0.4c-0.1,0-0.1,0.1,0,0.1
		c0,0.1,0.1,0.1,0.2,0.1C20.6,64.3,20.2,63.5,20,63.5L20,63.5z M23.9,63.6C23.9,63.6,23.8,63.6,23.9,63.6c-0.1,0.1-0.1,0.2-0.1,0.3
		c0.1,0.1,0.1,0.1,0.2,0C24,63.8,24,63.6,23.9,63.6L23.9,63.6z M6.7,63.8c-0.1,0-0.1,0.1-0.1,0.3c0,0.2,0.1,0.3,0.1,0.2
		c0.1,0,0.1-0.2,0.1-0.3C6.8,63.9,6.8,63.8,6.7,63.8z"/>
	
		<g id="g4028_00000110451475831723431200000011063033999815895982_" transform="matrix(-3.6904876,0,0,3.6904876,215.03003,33.615332)">
		<g id="g4002_00000077318750801117522140000001423076728367198371_">
			<g>
				<path id="path3992_00000062160323943421981400000004036479247864528566_" class="st2" d="M52.8,5.3v0.7l-0.3,0l0-0.7L52.8,5.3z"
					/>
				<path d="M52.5,5.9C52.5,5.9,52.5,5.9,52.5,5.9l0.3,0c0,0,0,0,0,0V5.3c0,0,0,0,0,0h-0.2c0,0,0,0,0,0L52.5,5.9
					C52.5,5.9,52.5,5.9,52.5,5.9C52.5,5.9,52.5,5.9,52.5,5.9z M52.8,5.9l-0.2,0l0-0.7h0.2V5.9z"/>
			</g>
			<g>
				<path id="path3994_00000104684059022839018110000001259297757673145247_" class="st2" d="M52.4,5.1l-0.1,0.2v0.7h0.2V5.3
					L52.4,5.1z"/>
				<path d="M52.3,5.9h0.2c0,0,0,0,0,0V5.3c0,0,0,0,0,0l-0.1-0.2c0,0,0,0,0,0c0,0,0,0,0,0l-0.1,0.2c0,0,0,0,0,0L52.3,5.9
					C52.3,5.9,52.3,5.9,52.3,5.9z M52.5,5.9h-0.2V5.3l0.1-0.2l0.1,0.2V5.9z"/>
			</g>
			<g>
				<path id="path3996_00000140704553344871273550000015903569195249686931_" class="st2" d="M52.4,5.1h0.2l0.1,0.2h-0.2L52.4,5.1z"
					/>
				<path d="M52.5,5.3h0.2c0,0,0,0,0,0c0,0,0,0,0,0l-0.1-0.2c0,0,0,0,0,0h-0.2c0,0,0,0,0,0c0,0,0,0,0,0L52.5,5.3
					C52.5,5.3,52.5,5.3,52.5,5.3z M52.8,5.2h-0.2l-0.1-0.2h0.2L52.8,5.2z"/>
			</g>
			<polygon id="rect3998_00000124139326020146126290000000608423654332905896_" points="52.4,5.3 52.4,5.3 52.4,5.3 52.4,5.4 
				52.4,5.4 52.4,5.4 52.4,5.4 52.4,5.3 			"/>
			<polygon id="rect4000_00000166655391866725130460000002012349234502377883_" points="52.4,5.3 52.5,5.3 52.5,5.3 52.5,5.4 
				52.5,5.4 52.4,5.4 52.4,5.4 52.4,5.3 			"/>
		</g>
		<g>
			
				<rect id="rect4004_00000029015173125497020180000017247116406685022349_" x="51" y="7.1" class="st2" width="0.7" height="-1.3"/>
			<path d="M51,7.1h0.7c0,0,0,0,0,0V5.8c0,0,0,0,0,0H51c0,0,0,0,0,0L51,7.1C51,7.1,51,7.1,51,7.1z M51.7,7.1H51V5.9h0.7V7.1z"/>
		</g>
		<g>
			
				<rect id="rect4006_00000145058413925357510370000007058816437301131415_" x="51" y="5.9" class="st2" width="0.8" height="-0.2"/>
			<path d="M51,5.9h0.8c0,0,0,0,0,0V5.7c0,0,0,0,0,0H51c0,0,0,0,0,0L51,5.9C51,5.9,51,5.9,51,5.9z M51.7,5.9H51V5.7h0.7V5.9z"/>
		</g>
		<g>
			<path id="path4008_00000011020827637373453250000002129312428290416830_" class="st2" d="M51.4,4.1l-0.2,0.7l-0.2,0.7h0.4h0.4
				l-0.2-0.7L51.4,4.1z"/>
			<path d="M50.9,5.4h0.9c0,0,0,0,0,0c0,0,0,0,0,0l-0.4-1.3c0,0,0,0,0,0L50.9,5.4C50.9,5.4,50.9,5.4,50.9,5.4
				C50.9,5.4,50.9,5.4,50.9,5.4z M51.8,5.4h-0.9l0.4-1.3L51.8,5.4z"/>
		</g>
		<g>
			<path id="path4010_00000155148169457747359490000017469000262583002268_" class="st2" d="M53.6,4.7l-0.2,0.1V5l-0.2,0.2V5
				l-0.2,0.2v0.2l-0.3,0.2V5.4l-0.2,0.1v0.2l-0.3,0.2V5.7l-0.2,0.1v0.2l-0.3,0.2V6.1l-0.2,0.1l0,0.9h2V5.4L53.6,4.7z"/>
			<path d="M51.7,7.1h2c0,0,0,0,0,0V5.4c0,0,0,0,0,0l-0.1-0.7c0,0,0,0,0,0c0,0,0,0,0,0l-0.2,0.1c0,0,0,0,0,0V5l-0.2,0.1V5
				c0,0,0,0,0,0c0,0,0,0,0,0L53,5.2c0,0,0,0,0,0v0.2l-0.2,0.2V5.4c0,0,0,0,0,0c0,0,0,0,0,0l-0.2,0.1c0,0,0,0,0,0v0.2l-0.2,0.2V5.7
				c0,0,0,0,0,0c0,0,0,0,0,0l-0.2,0.1c0,0,0,0,0,0V6l-0.2,0.2V6.1c0,0,0,0,0,0c0,0,0,0,0,0l-0.2,0.1c0,0,0,0,0,0L51.7,7.1
				C51.7,7.1,51.7,7.1,51.7,7.1C51.7,7.1,51.7,7.1,51.7,7.1z M53.7,7.1h-2l0-0.9l0.1-0.1v0.2c0,0,0,0,0,0c0,0,0,0,0,0l0.3-0.2
				c0,0,0,0,0,0V5.9l0.2-0.1v0.2c0,0,0,0,0,0c0,0,0,0,0,0l0.3-0.2c0,0,0,0,0,0V5.5l0.1-0.1v0.2c0,0,0,0,0,0c0,0,0,0,0,0l0.3-0.2
				c0,0,0,0,0,0V5.2L53.3,5v0.2c0,0,0,0,0,0c0,0,0,0,0,0l0.2-0.2c0,0,0,0,0,0V4.8l0.1-0.1l0.1,0.7V7.1z"/>
		</g>
		<circle id="circle4012_00000142876251722802054150000001409211714145866915_" cx="52.1" cy="6.3" r="0.1"/>
		<circle id="circle4014_00000008139536591085238980000001264132535733207481_" cx="52.8" cy="5.8" r="0.1"/>
		<circle id="circle4016_00000011750373534589287760000009239088263487562422_" cx="53.4" cy="5.3" r="0.1"/>
		<circle id="circle4018_00000027566720768361666620000014543087129265054854_" cx="51.2" cy="6.1" r="0.1"/>
		<circle id="circle4020_00000090287858165880435600000006651608872189656509_" cx="51.6" cy="6.1" r="0.1"/>
		<g>
			<path id="path4022_00000170252278860723537280000011548497497252549278_" class="st2" d="M53.1,5.2l0.1-0.7L53.3,5"/>
			<path d="M53.1,5.2l0.1-0.6L53.3,5l0,0l-0.1-0.5c0,0,0,0,0,0c0,0,0,0,0,0L53.1,5.2L53.1,5.2z"/>
		</g>
		<g>
			<path id="path4024_00000060726152513257045690000009468686582494250401_" class="st2" d="M50.9,5.2v0.2v0.3h0.2h0.2h0.2h0.2h0.2
				V5.4V5.2h-0.2v0.2h-0.2V5.2h-0.2v0.2h-0.2V5.2H50.9z"/>
			<path d="M50.9,5.7h0.9c0,0,0,0,0,0V5.2c0,0,0,0,0,0h-0.2c0,0,0,0,0,0v0.1h-0.1V5.2c0,0,0,0,0,0h-0.2c0,0,0,0,0,0v0.1h-0.1V5.2
				c0,0,0,0,0,0h-0.2c0,0,0,0,0,0L50.9,5.7C50.9,5.7,50.9,5.7,50.9,5.7z M51.8,5.6H51V5.2h0.1v0.1c0,0,0,0,0,0h0.2c0,0,0,0,0,0V5.2
				h0.1v0.1c0,0,0,0,0,0h0.2c0,0,0,0,0,0V5.2h0.1V5.6z"/>
		</g>
		<g>
			<path id="path4026_00000092424529085406018350000017605647292793048710_" class="st6" d="M53.7,5.4l-2,1.6v0.1h0.2l1.8-1.5V5.4z"
				/>
			<path d="M51.7,7.1h0.2c0,0,0,0,0,0l1.8-1.5c0,0,0,0,0,0V5.4c0,0,0,0,0,0c0,0,0,0,0,0l-2,1.6c0,0,0,0,0,0L51.7,7.1
				C51.7,7.1,51.7,7.1,51.7,7.1z M51.9,7.1h-0.2V7l2-1.6v0.2L51.9,7.1z"/>
		</g>
	</g>
</g>
</svg>
