<?xml version="1.0" encoding="utf-8"?>
<!-- Generator: Adobe Illustrator 26.3.1, SVG Export Plug-In . SVG Version: 6.00 Build 0)  -->
<svg version="1.1" id="Layer_1" xmlns="http://www.w3.org/2000/svg" xmlns:xlink="http://www.w3.org/1999/xlink" x="0px" y="0px"
	 viewBox="0 0 48 48" style="enable-background:new 0 0 48 48;" xml:space="preserve">
<style type="text/css">
	.st0{fill:#A5915F;}
</style>
<g>
	<path class="st0" d="M15.9,4.7V1.4c0-0.8-0.6-1.4-1.4-1.4H1.4C0.6,0,0,0.6,0,1.4v3.3H15.9z"/>
	<path class="st0" d="M47.3,13.4c-0.4-0.3-1-0.2-1.4,0L32,21.5v-6.9c0-0.5-0.3-1-0.7-1.2c-0.4-0.3-1-0.2-1.4,0l-13.9,8.1v-14H0v39.1
		C0,47.4,0.6,48,1.4,48h45.2c0.8,0,1.4-0.6,1.4-1.4v-32C48,14.1,47.7,13.7,47.3,13.4z M21.6,38.1c0,0.8-0.6,1.4-1.4,1.4h-5.6
		c-0.8,0-1.4-0.6-1.4-1.4v-5.6c0-0.8,0.6-1.4,1.4-1.4h5.6c0.8,0,1.4,0.6,1.4,1.4V38.1z M37.6,38.1c0,0.8-0.6,1.4-1.4,1.4h-5.6
		c-0.8,0-1.4-0.6-1.4-1.4v-5.6c0-0.8,0.6-1.4,1.4-1.4h5.6c0.8,0,1.4,0.6,1.4,1.4V38.1z"/>
</g>
</svg>
