<?xml version="1.0" encoding="utf-8"?>
<!-- Generator: Adobe Illustrator 26.3.1, SVG Export Plug-In . SVG Version: 6.00 Build 0)  -->
<svg version="1.1" id="Layer_1" xmlns="http://www.w3.org/2000/svg" xmlns:xlink="http://www.w3.org/1999/xlink" x="0px" y="0px"
	 viewBox="0 0 57.2 56.9" style="enable-background:new 0 0 57.2 56.9;" xml:space="preserve">
<style type="text/css">
	.st0{fill:#A5915F;}
</style>
<g>
	<path class="st0" d="M57.2,25.1c0-0.5-0.3-0.9-0.7-1.2L52,20.5l1.6-5.4c0.1-0.4,0.1-0.9-0.2-1.3c-0.2-0.4-0.6-0.7-1.1-0.8l-5.5-1.3
		L46.1,6c-0.1-0.5-0.3-0.9-0.7-1.2c-0.4-0.3-0.8-0.4-1.3-0.3l-5.6,1.1l-2.9-4.9C35.4,0.4,35,0.1,34.6,0c-0.5-0.1-0.9,0-1.3,0.3
		l-4.7,3.2l-4.7-3.2C23.5,0,23.1-0.1,22.6,0c-0.5,0.1-0.9,0.4-1.1,0.8l-2.9,4.9L13,4.6c-0.5-0.1-0.9,0-1.3,0.3
		C11.3,5.2,11.1,5.6,11,6l-0.7,5.6L4.8,13c-0.5,0.1-0.8,0.4-1.1,0.8c-0.2,0.4-0.3,0.9-0.2,1.3l1.6,5.4L0.7,24
		c-0.4,0.3-0.6,0.7-0.7,1.2c0,0.5,0.1,0.9,0.4,1.3l3.7,4.3l-2.7,5c-0.2,0.4-0.3,0.9-0.1,1.3c0.1,0.4,0.5,0.8,0.9,1l5.1,2.4l-0.5,5.7
		c0,0.5,0.1,0.9,0.4,1.3c0.3,0.3,0.8,0.5,1.2,0.6l5.7,0.1l1.9,5.4c0.2,0.4,0.5,0.8,0.9,1c0.4,0.2,0.9,0.2,1.3,0l5.2-2.2l3.9,4.1
		c0.3,0.3,0.8,0.5,1.2,0.5c0.5,0,0.9-0.2,1.2-0.5l3.9-4.1l5.2,2.2c0.4,0.2,0.9,0.2,1.3,0c0.4-0.2,0.8-0.5,0.9-1L43,48l5.7-0.1
		c0.5,0,0.9-0.2,1.2-0.6c0.3-0.3,0.5-0.8,0.4-1.3l-0.5-5.7L55,38c0.4-0.2,0.7-0.6,0.9-1c0.1-0.4,0.1-0.9-0.1-1.3l-2.7-5l3.7-4.3
		C57.1,26.1,57.2,25.6,57.2,25.1z M28.6,44.5c-8.9,0-16.1-7.2-16.1-16.1s7.2-16.1,16.1-16.1s16.1,7.2,16.1,16.1S37.5,44.5,28.6,44.5
		z"/>
	<path class="st0" d="M28.6,15.7c-7,0-12.7,5.7-12.7,12.7s5.7,12.7,12.7,12.7c7,0,12.7-5.7,12.7-12.7S35.6,15.7,28.6,15.7z M35.2,26
		L28,33.2c-0.3,0.3-0.8,0.5-1.2,0.5c-0.4,0-0.9-0.2-1.2-0.5L22,29.6c-0.7-0.7-0.7-1.7,0-2.4c0.7-0.7,1.7-0.7,2.4,0l2.4,2.4l6-6
		c0.7-0.7,1.7-0.7,2.4,0C35.8,24.3,35.8,25.4,35.2,26z"/>
</g>
</svg>
