<?xml version="1.0" encoding="utf-8"?>
<!-- Generator: Adobe Illustrator 26.3.1, SVG Export Plug-In . SVG Version: 6.00 Build 0)  -->
<svg version="1.1" id="Layer_1" xmlns="http://www.w3.org/2000/svg" xmlns:xlink="http://www.w3.org/1999/xlink" x="0px" y="0px"
	 viewBox="0 0 48.8 52.5" style="enable-background:new 0 0 48.8 52.5;" xml:space="preserve">
<style type="text/css">
	.st0{fill:#A5915F;}
</style>
<g>
	<path class="st0" d="M5.1,5.5l6.9,6.4h24.8l6.9-6.4c0,0-3.4-4.8-9.1-5.4C29.1-0.6,27.2,2.8,24.4,3c-2.8-0.1-4.7-3.5-10.2-2.9
		C8.5,0.7,5.1,5.5,5.1,5.5L5.1,5.5z"/>
	<path class="st0" d="M38.7,16.1H10.1c0,0-13.7,10.8-9.2,30.7c0,0,1.5,5.7,8.4,5.7h30.2c6.9,0,8.4-5.7,8.4-5.7
		C52.4,26.8,38.7,16.1,38.7,16.1z M36,22.1c0,0-3.4,9.9-6.5,6.8C26.4,25.8,34.9,22.4,36,22.1z M28,20.2c0,0-2.2,1.8-0.7,5.8
		c1.7,4.6-1.5,5.7-2.8,4.3C21.6,27.5,26.9,20.6,28,20.2z M23.8,24.4c0,0-2.2,1.8-0.7,5.8c1.7,4.6-1.5,5.7-2.8,4.3
		C17.3,31.7,22.7,24.8,23.8,24.4z M17,43l-4.1,3.4c-0.8,0.8-1.8-0.9-1.4-1.3L15,41c0.4-0.4,0.5,0.4,1.1,1C16.6,42.5,17.4,42.6,17,43
		z M15.9,39c-2.9-2.9,2.5-9.8,3.5-10.2c0,0-2.2,1.8-0.7,5.8C20.5,39.2,17.2,40.3,15.9,39z M19.1,42.1c-1.3-1.3-0.3-4.6,4.3-2.9
		c4.1,1.5,5.8-0.7,5.8-0.7C28.9,39.6,22,45.1,19.1,42.1z M23.4,37.8c-1.3-1.3-0.2-4.6,4.3-2.9c4.1,1.5,5.9-0.7,5.9-0.7
		C33.2,35.3,26.3,40.7,23.4,37.8z M27.6,33.6c-1.3-1.3-0.3-4.6,4.3-2.8c4.1,1.5,5.8-0.7,5.8-0.7C37.5,31.1,30.6,36.5,27.6,33.6z"/>
</g>
</svg>
