<?xml version="1.0" encoding="utf-8"?>
<!-- Generator: Adobe Illustrator 26.3.1, SVG Export Plug-In . SVG Version: 6.00 Build 0)  -->
<svg version="1.1" id="Layer_1" xmlns="http://www.w3.org/2000/svg" xmlns:xlink="http://www.w3.org/1999/xlink" x="0px" y="0px"
	 viewBox="0 0 379.7 70" style="enable-background:new 0 0 379.7 70;" xml:space="preserve">
<style type="text/css">
	.st0{fill:#23441C;stroke:#23441C;stroke-width:1.5;stroke-linecap:round;stroke-linejoin:round;stroke-miterlimit:10;}
	.st1{fill:#23441C;}
	.st2{fill:#A5915F;}
</style>
<g>
	<g>
		<g>
			<path class="st0" d="M49.8,25.6"/>
		</g>
		<path class="st1" d="M30.9,38.8c18.4,16.8-0.4,27.8-0.4,27.8C12.6,52.5,30.9,38.8,30.9,38.8 M30.9,36.6c-0.5,0-0.9,0.1-1.3,0.4
			c-0.4,0.3-9.1,6.9-9.2,16.1c-0.1,5.5,2.9,10.7,8.7,15.3c0.4,0.3,0.9,0.5,1.4,0.5c0.4,0,0.8-0.1,1.1-0.3c0.4-0.2,8.6-5.1,9.5-13.7
			c0.6-5.9-2.3-11.8-8.7-17.7C32,36.8,31.5,36.6,30.9,36.6L30.9,36.6z"/>
		<g>
			<line class="st1" x1="30.7" y1="66.2" x2="30.6" y2="53.1"/>
			<path class="st1" d="M30.7,67.4c-0.6,0-1.1-0.5-1.1-1.1l-0.1-13.2c0-0.6,0.5-1.1,1.1-1.1c0,0,0,0,0,0c0.6,0,1.1,0.5,1.1,1.1
				l0.1,13.2C31.9,66.9,31.4,67.4,30.7,67.4C30.7,67.4,30.7,67.4,30.7,67.4z"/>
		</g>
		<path class="st1" d="M31,18.2c0.3,0.3,0.6,0.6,1,0.9l0-6.1c0-0.6-0.5-1.1-1.1-1.1c0,0,0,0,0,0c-0.6,0-1.1,0.5-1.1,1.1l0,6.3
			C30.5,18.6,31,18.2,31,18.2z"/>
		<path class="st1" d="M32.6,0.6c-0.4-0.4-1-0.6-1.5-0.6c-0.5,0-0.9,0.1-1.3,0.4c-0.4,0.3-9.1,6.9-9.2,16.1c0,3.5,1.2,6.9,3.6,10.1
			c0.4-0.8,0.8-1.5,1.2-2.2c-8-11.9,5.7-22.2,5.7-22.2c10.7,9.7,8.9,17.5,5.4,22.3c0.5,0.7,0.9,1.5,1.2,2.2c1.7-2.2,3.3-5,3.6-8.5
			C41.9,12.4,39,6.5,32.6,0.6z"/>
		<path class="st1" d="M32.5,16.5c-0.4-0.4-1-0.6-1.5-0.6c-0.5,0-0.9,0.1-1.3,0.4c-0.4,0.3-9.1,6.9-9.2,16.1
			c-0.1,4.2,1.7,8.3,5.2,12c0.4-0.7,0.9-1.3,1.4-1.8c-11.6-12.9,4-24.5,4-24.5c12.5,11.4,7.9,20.1,3.6,24.5c0.5,0.6,1,1.2,1.4,1.8
			c2.3-2.3,4.8-5.8,5.3-10.3C41.9,28.4,38.9,22.4,32.5,16.5z"/>
		<path class="st1" d="M30.9,38.8c0.3,0.3,0.7,0.6,1,0.9l0-8c0-0.6-0.5-1.1-1.1-1.1c-0.6,0-1.1,0.5-1.1,1.1l0,8.2
			C30.4,39.2,30.9,38.8,30.9,38.8z"/>
		<path class="st1" d="M35.7,7.3c5.4,7.4,3.6,13.3,0.8,17.3c0.7,1.1,1.2,2.1,1.6,3.1c0,0,0,0,0,0c5.8-3,12.8-2,12.8-2
			c0.7,16.4-8.1,19.6-14.3,19.9c0.1,0.2,0.3,0.5,0.4,0.7c0,0,0,0,0,0c0.1,0.2,0.2,0.5,0.4,0.7c0,0,0,0,0,0c0.2,0.5,0.4,0.9,0.6,1.4
			c5.8-3,12.8-2,12.8-2c1,22.1-15.5,20.3-19.2,19.6c-0.4,0.3-0.7,0.5-0.9,0.6c0,0,0,0,0,0c-0.1,0-0.1,0.1-0.1,0.1c0,0,0,0,0,0
			c0,0,0,0,0,0c0,0,0,0,0,0c-0.2-0.2-0.4-0.3-0.6-0.5C8.3,68.1,11.5,46.1,11.5,46.1c5.4-0.2,9.3,0.5,12.2,1.9
			c0.2-0.4,0.4-0.9,0.6-1.3c0,0,0,0,0,0c0.2-0.4,0.4-0.8,0.7-1.2C8.9,43.9,11.6,25.4,11.6,25.4c5.4-0.2,9.3,0.5,12.2,1.9
			c0,0,0,0,0,0c0.1-0.2,0.2-0.5,0.3-0.7c0,0,0,0,0-0.1c0.2-0.5,0.5-0.9,0.7-1.4c0,0,0-0.1,0.1-0.1c0.1-0.2,0.2-0.4,0.4-0.6
			c-4.5-6.7-2.2-12.9,0.8-17C11.3,10,0.1,22.9,0,38.4C-0.1,55.8,14,69.9,31.4,70S62.9,56,63,38.6C63,22.6,51.1,9.3,35.7,7.3z"/>
	</g>
	<g>
		<path class="st2" d="M89,42.3H80l-1.4,3h-6.5v-0.9l10.9-23.2H86l10.8,23.2v0.9h-6.4L89,42.3z M84.5,31.3L82,37H87L84.5,31.3z"/>
		<path class="st2" d="M105.9,45.5h-2.3l-8.3-16.1v-0.6h6.2l3.1,7.4h0.1l3.2-7.4h6.2v0.6L105.9,45.5z"/>
		<path class="st2" d="M126.1,42.9c-0.4,0.9-1.1,1.5-2.1,2c-1,0.4-2,0.6-3.1,0.6c-1.6,0-3-0.5-4.1-1.4c-1.2-1-1.8-2.2-1.8-3.7
			c-0.1-2,0.5-3.5,1.6-4.5c1.2-1,2.8-1.5,4.7-1.5c1.5,0,2.7,0.3,3.7,0.9v-0.5c0-1.2-1.2-1.9-3.5-1.9c-1.9,0-3.4,0.3-4.5,0.9
			l-0.7-4.1c1.8-0.8,3.8-1.2,6.2-1.2c2.4,0,4.4,0.5,5.9,1.5c1.5,1,2.2,2.7,2.2,4.9v5.3c0,0.5,0,0.9,0.1,1.1s0.2,0.4,0.4,0.6
			s0.5,0.3,1,0.3v3.2C128.3,46,126.4,45.3,126.1,42.9z M124.9,39.1v-0.3c-0.7-0.5-1.6-0.8-2.6-0.7c-0.6,0-1.1,0.2-1.4,0.6
			c-0.3,0.3-0.4,0.8-0.3,1.4c0.1,0.8,0.6,1.2,1.5,1.2c0.7,0,1.3-0.2,1.9-0.5C124.6,40.2,124.9,39.7,124.9,39.1z"/>
		<path class="st2" d="M152.1,45.2h-5.8v-9.4c0-0.9-0.2-1.6-0.7-2.1c-0.5-0.5-1-0.7-1.7-0.8c-0.7,0-1.4,0.3-1.9,0.8
			c-0.5,0.5-0.8,1.2-0.8,2.2v9.3h-5.8V33.8c0-0.4,0-0.7,0-0.8c0-0.1-0.1-0.3-0.1-0.5c-0.1-0.2-0.2-0.4-0.4-0.4
			c-0.2-0.1-0.5-0.1-0.8-0.1v-3.2c0.7-0.2,1.3-0.3,2.1-0.3s1.5,0,2.2,0.1s1.4,0.4,1.9,0.8s0.8,1,0.8,1.8c0.5-0.8,1.1-1.5,2-1.9
			c0.9-0.5,1.8-0.7,2.8-0.7c2.2,0,3.9,0.7,4.9,2c1,1.3,1.5,3.1,1.5,5.4V45.2z"/>
		<path class="st2" d="M166.4,45.6v-0.3c-1.3,0.5-2.5,0.7-3.7,0.7c-2.2,0-4.1-0.7-5.5-2.3c-1.4-1.6-2.1-3.7-2.1-6.3
			c0-1.6,0.3-3,0.8-4.1c0.5-1.2,1.3-2.1,2.2-2.7s1.9-1.1,3-1.4c1.1-0.3,2.3-0.4,3.6-0.4c2.2,0,4.6,0.5,7.2,1.5v15.4
			c0,2.9-0.8,5.1-2.4,6.6c-1.6,1.5-3.6,2.2-6.1,2.2c-2.2,0-4.6-0.6-6.9-1.9l0.7-4.3c1.9,1,3.7,1.5,5.4,1.5
			C165.2,49.7,166.4,48.3,166.4,45.6z M166.4,40.6v-6.8c-1-0.2-1.7-0.3-2.1-0.3c-1.1,0-1.9,0.4-2.5,1.1c-0.6,0.7-0.9,1.7-0.9,2.8
			c0,1.2,0.3,2.1,0.9,2.7c0.6,0.6,1.4,1,2.4,1C164.9,41,165.6,40.9,166.4,40.6z"/>
		<path class="st2" d="M186.3,42.9c-0.4,0.9-1.1,1.5-2.1,2c-1,0.4-2,0.6-3.1,0.6c-1.6,0-3-0.5-4.1-1.4c-1.2-1-1.8-2.2-1.8-3.7
			c-0.1-2,0.5-3.5,1.6-4.5c1.2-1,2.8-1.5,4.7-1.5c1.5,0,2.7,0.3,3.7,0.9v-0.5c0-1.2-1.2-1.9-3.5-1.9c-1.9,0-3.4,0.3-4.5,0.9
			l-0.7-4.1c1.8-0.8,3.8-1.2,6.2-1.2c2.4,0,4.4,0.5,5.9,1.5c1.5,1,2.2,2.7,2.2,4.9v5.3c0,0.5,0,0.9,0.1,1.1s0.2,0.4,0.4,0.6
			s0.5,0.3,1,0.3v3.2C188.5,46,186.6,45.3,186.3,42.9z M185.1,39.1v-0.3c-0.7-0.5-1.6-0.8-2.6-0.7c-0.6,0-1.1,0.2-1.4,0.6
			c-0.3,0.3-0.4,0.8-0.3,1.4c0.1,0.8,0.6,1.2,1.5,1.2c0.7,0,1.3-0.2,1.9-0.5C184.8,40.2,185.1,39.7,185.1,39.1z"/>
		<path class="st2" d="M201.1,31c0.3-0.9,0.9-1.5,1.7-2c0.8-0.5,1.7-0.7,2.7-0.7c1.3,0,2.4,0.3,3.3,1l-1.2,4.7
			c-0.8-0.6-1.8-0.9-2.8-0.8c-1,0-1.9,0.4-2.6,1.1c-0.7,0.7-1,1.6-1,2.8v8.2h-5.7V33.8c0-0.5,0-0.9-0.1-1.1c0-0.2-0.2-0.4-0.4-0.6
			c-0.2-0.2-0.6-0.2-1-0.2v-3.2c0.7-0.2,1.3-0.3,2-0.3c0.7-0.1,1.4,0,2.2,0.1c0.8,0.1,1.4,0.3,1.9,0.8S201.1,30.2,201.1,31z"/>
		<path class="st2" d="M222,43.1v-0.2c-0.9,1.8-2.3,2.7-4.4,2.7c-2.4,0-4.3-0.7-5.7-2.4c-1.4-1.6-2.1-3.7-2.1-6.2
			c0-2.4,0.8-4.5,2.3-6.1c1.6-1.7,3.4-2.5,5.6-2.5c1,0,2.1,0.2,3.2,0.6v-8.7h5.8v19.8c0,0.4,0,0.6,0,0.7s0,0.2,0.1,0.5
			c0,0.2,0.1,0.4,0.2,0.4s0.2,0.1,0.4,0.2c0.2,0.1,0.4,0.1,0.7,0.1v3.2c-0.7,0.2-1.3,0.3-1.9,0.3c-0.6,0.1-1.2,0-1.9,0
			c-0.7-0.1-1.2-0.3-1.6-0.7S222.1,43.8,222,43.1z M221.1,37.7V34c-0.8-0.3-1.5-0.5-2.2-0.5c-0.9,0-1.7,0.3-2.3,1
			c-0.6,0.6-0.9,1.5-0.9,2.6c0,1.1,0.2,1.9,0.7,2.6c0.5,0.6,1.2,1,2.2,1c0.8,0,1.4-0.3,1.8-0.8C220.8,39.1,221.1,38.5,221.1,37.7z"
			/>
		<path class="st2" d="M231.3,39v-5h12.3v5H231.3z"/>
		<path class="st2" d="M246.6,40h5.6c0,0.5,0.2,0.9,0.6,1.1c0.4,0.2,0.8,0.4,1.3,0.4c0.5,0,1-0.1,1.3-0.3s0.6-0.5,0.6-1
			c0-0.3-0.1-0.6-0.3-0.7c-0.2-0.2-0.4-0.3-0.6-0.4c-0.2-0.1-0.5-0.1-0.9-0.2c-0.8-0.1-1.5-0.2-2-0.3c-0.5-0.1-1.2-0.3-1.9-0.5
			s-1.4-0.5-1.8-0.9c-0.4-0.3-0.8-0.8-1.1-1.4s-0.5-1.3-0.5-2c0-1.8,0.7-3.2,2.2-4.1c1.4-1,3.2-1.4,5.2-1.4c2,0,3.8,0.5,5.2,1.5
			s2.1,2.4,2,4.1h-5.1c0-0.4-0.3-0.7-0.7-0.9c-0.4-0.2-0.9-0.3-1.4-0.3c-0.5,0-0.9,0.1-1.2,0.3s-0.5,0.4-0.5,0.8c0,0.1,0,0.2,0,0.3
			s0,0.2,0.1,0.2c0.1,0.1,0.1,0.1,0.2,0.2c0,0.1,0.1,0.1,0.2,0.1c0.1,0,0.2,0.1,0.3,0.1c0.1,0,0.2,0.1,0.3,0.1c0.1,0,0.2,0,0.3,0
			s0.2,0,0.3,0.1s0.2,0,0.3,0c0.9,0.1,1.7,0.2,2.2,0.3c0.5,0.1,1.2,0.3,2,0.5s1.3,0.5,1.8,0.9c0.4,0.3,0.8,0.8,1.1,1.4
			s0.4,1.3,0.4,2.2c0,1.7-0.8,3.1-2.3,4.1c-1.5,1-3.2,1.4-5.2,1.4C249.3,45.7,246.7,43.8,246.6,40z"/>
		<path class="st2" d="M279,30.6c1.7,1.5,2.6,3.6,2.6,6.4c0,2.7-0.9,4.8-2.6,6.3c-1.7,1.5-3.7,2.3-6.1,2.3c-1.5,0-2.9-0.3-4.2-0.9
			c-1.3-0.6-2.4-1.6-3.2-3c-0.9-1.3-1.3-2.9-1.3-4.8c0-2.7,0.9-4.8,2.6-6.4c1.7-1.5,3.7-2.3,6.1-2.3C275.2,28.3,277.3,29.1,279,30.6
			z M270.8,34.3c-0.6,0.6-0.9,1.5-0.9,2.7s0.3,2,0.9,2.7c0.6,0.6,1.3,0.9,2.1,0.9c0.8,0,1.5-0.3,2.1-1c0.6-0.6,0.9-1.5,0.9-2.6
			c0-1.1-0.3-2-0.9-2.6c-0.6-0.6-1.3-0.9-2.1-1C272.1,33.4,271.4,33.7,270.8,34.3z"/>
		<path class="st2" d="M284.5,20.3h5.7v18.3c0,1,0.2,1.7,0.7,2.1c0.5,0.3,1.2,0.4,2.1,0.3l0.2,4.3c-2.8,0.5-4.9,0.3-6.4-0.7
			s-2.3-3-2.3-6V20.3z"/>
		<path class="st2" d="M309.6,30.6c1.7,1.5,2.6,3.6,2.6,6.4c0,2.7-0.9,4.8-2.6,6.3c-1.7,1.5-3.7,2.3-6.1,2.3c-1.5,0-2.9-0.3-4.2-0.9
			c-1.3-0.6-2.4-1.6-3.2-3c-0.9-1.3-1.3-2.9-1.3-4.8c0-2.7,0.9-4.8,2.6-6.4c1.7-1.5,3.7-2.3,6.1-2.3
			C305.8,28.3,307.9,29.1,309.6,30.6z M301.4,34.3c-0.6,0.6-0.9,1.5-0.9,2.7s0.3,2,0.9,2.7c0.6,0.6,1.3,0.9,2.1,0.9
			c0.8,0,1.5-0.3,2.1-1c0.6-0.6,0.9-1.5,0.9-2.6c0-1.1-0.3-2-0.9-2.6c-0.6-0.6-1.3-0.9-2.1-1C302.7,33.4,302,33.7,301.4,34.3z"/>
		<path class="st2" d="M326.7,43.1v-0.2c-0.9,1.8-2.3,2.7-4.4,2.7c-2.4,0-4.3-0.7-5.7-2.4c-1.4-1.6-2.1-3.7-2.1-6.2
			c0-2.4,0.8-4.5,2.3-6.1c1.6-1.7,3.4-2.5,5.6-2.5c1,0,2.1,0.2,3.2,0.6v-8.7h5.8v19.8c0,0.4,0,0.6,0,0.7s0,0.2,0.1,0.5
			c0,0.2,0.1,0.4,0.2,0.4c0.1,0.1,0.2,0.1,0.4,0.2c0.2,0.1,0.4,0.1,0.7,0.1v3.2c-0.7,0.2-1.3,0.3-1.9,0.3s-1.2,0-1.9,0
			c-0.7-0.1-1.2-0.3-1.6-0.7S326.7,43.8,326.7,43.1z M325.7,37.7V34c-0.8-0.3-1.5-0.5-2.2-0.5c-0.9,0-1.7,0.3-2.3,1
			c-0.6,0.6-0.9,1.5-0.9,2.6c0,1.1,0.2,1.9,0.7,2.6c0.5,0.6,1.2,1,2.2,1c0.8,0,1.4-0.3,1.8-0.8C325.5,39.1,325.7,38.5,325.7,37.7z"
			/>
		<path class="st2" d="M339,45.8c-1,0-1.8-0.3-2.4-0.9s-1-1.3-1-2.2c0-0.9,0.3-1.7,1-2.3s1.4-0.9,2.4-0.9c1,0,1.8,0.3,2.4,0.9
			s1,1.3,1,2.3c0,0.9-0.3,1.7-1,2.2S340,45.8,339,45.8z"/>
		<path class="st2" d="M352.1,31c0.3-0.9,0.9-1.5,1.7-2c0.8-0.5,1.7-0.7,2.7-0.7c1.3,0,2.4,0.3,3.3,1l-1.2,4.7
			c-0.8-0.6-1.8-0.9-2.8-0.8c-1,0-1.9,0.4-2.6,1.1c-0.7,0.7-1,1.6-1,2.8v8.2h-5.7V33.8c0-0.5,0-0.9-0.1-1.1c0-0.2-0.2-0.4-0.4-0.6
			c-0.2-0.2-0.6-0.2-1-0.2v-3.2c0.7-0.2,1.3-0.3,2-0.3s1.4,0,2.2,0.1c0.8,0.1,1.4,0.3,1.9,0.8C351.7,29.7,352,30.2,352.1,31z"/>
		<path class="st2" d="M372.5,28.8h5.8v11.6c0,0.4,0,0.7,0.1,0.9s0.2,0.3,0.4,0.5c0.2,0.1,0.5,0.2,1,0.2v3.2
			c-0.7,0.2-1.4,0.3-2.1,0.4c-0.7,0.1-1.4,0.1-2.2,0s-1.5-0.3-2-0.8c-0.5-0.5-0.7-1.1-0.7-2c-0.4,0.8-1,1.5-1.9,2
			c-0.9,0.5-1.8,0.7-2.8,0.7c-2.3,0-3.8-0.6-4.7-1.9c-0.9-1.3-1.3-3.1-1.3-5.4v-9.3h5.9v9.3c0,0.9,0.1,1.6,0.6,2.1
			c0.4,0.5,0.9,0.7,1.6,0.7c0.7,0,1.3-0.3,1.8-0.8c0.5-0.5,0.8-1.2,0.8-2.1V28.8z"/>
	</g>
</g>
</svg>
