<?xml version="1.0" encoding="utf-8"?>
<!-- Generator: Adobe Illustrator 26.3.1, SVG Export Plug-In . SVG Version: 6.00 Build 0)  -->
<svg version="1.1" id="Layer_1" xmlns="http://www.w3.org/2000/svg" xmlns:xlink="http://www.w3.org/1999/xlink" x="0px" y="0px"
	 viewBox="0 0 146.5 109.4" style="enable-background:new 0 0 146.5 109.4;" xml:space="preserve">
<style type="text/css">
	.st0{fill:#9E8A5F;}
</style>
<g>
	<path class="st0" d="M44.1,91.3c0.7,0,1-0.5,1-1c0-0.5-0.5-1-1-1H2c-0.5,0-1,0.5-1,1s0.5,1,1,1H44.1z"/>
	<path class="st0" d="M10.6,80.9c-0.5,0-1,0.5-1,1s0.5,1,1,1h24.9c0.3,0,0.6-0.1,0.7-0.3c0.2-0.2,0.2-0.4,0.2-0.7
		c0-0.6-0.5-1.1-1-1.1H10.6z"/>
	<path class="st0" d="M30.6,72.7h-15c-0.5,0-1,0.5-1,1s0.5,1,1,1h15c0.5,0,1-0.5,1-1S31.1,72.7,30.6,72.7z"/>
	<path class="st0" d="M144.6,89.2h-42.2c-0.5,0-1,0.5-1,1s0.5,1,1,1h42.2c0.5,0,1-0.5,1-1S145.1,89.2,144.6,89.2z"/>
	<path class="st0" d="M111.1,80.9c-0.5,0-1,0.5-1,1s0.5,1,1,1H136c0.3,0,0.6-0.1,0.7-0.3c0.2-0.2,0.2-0.4,0.2-0.7
		c0-0.6-0.5-1.1-1-1.1H111.1z"/>
	<path class="st0" d="M131,74.8c0.7,0,1-0.5,1-1c0-0.5-0.5-1-1-1h-15c-0.5,0-1,0.5-1,1s0.5,1,1,1H131z"/>
	<g>
		<polygon class="st0" points="71.9,23.3 71.9,23.3 71.9,23.3 		"/>
		<path class="st0" d="M73,107.5V85.4l0.4-0.3l0.2,0.1c1.4,0.2,2.8,0.3,4.2,0.3c6.3,0,11.7-2.1,15.4-6c4.5-4.7,6.6-11.9,6.1-21.5
			c-0.1-1.3-1-2.3-2.2-2.5l-0.4-0.1v-0.1c-0.5-0.1-1.8-0.2-3.5-0.2h-1.2l0.9-1c0.2-0.2,0.3-0.3,0.5-0.5c4.5-4.7,6.6-11.9,6.1-21.5
			c-0.1-1.3-1-2.3-2.2-2.5c0,0-0.1,0-0.2,0c-0.5,0-1.9-0.2-3.9-0.2c-2.6,0-6.5,0.3-10.5,1.7l-1.2,0.4l0.6-1.1
			c1.4-2.4,2.2-4.9,2.5-7.5C85.5,16.2,81.9,8.9,74,1.6c-0.6-0.6-1.4-0.7-1.8-0.7c-0.5,0-1.1,0.2-1.5,0.5
			c-0.2,0.1-11.1,8.2-11.3,19.7c0,3.1,0.7,6.2,2.3,9.1l0.5,1L61.1,31c-3.1-1-6.7-1.4-10.7-1.4c-0.8,0-1.6,0-2.4,0.1
			c-1.3,0.1-2.3,1-2.5,2.2c0,0,0,0.1,0,0.2c-0.4,4-0.5,14,5.4,20.9c0.4,0.4,0.8,0.9,1.4,1.4l0.9,0.8l-1.2,0c-1.3,0-2.6-0.1-4,0.1
			c-1.3,0.1-2.3,1-2.5,2.2c0,0.1-1.9,12.9,5.3,21.1c3.9,4.5,9.6,6.7,16.8,6.7c0.7,0,1.4,0,2.1-0.1l0.2,0l0.1,0.1
			c0.3,0.2,0.5,0.3,0.8,0.4l0.3,0.1v21.6c0,0.5,0.5,1,1,1S73,108,73,107.5z M93.1,57.4c2.1,0,3.6,0.2,3.7,0.2l0.4,0.1l0,0.4
			c0.4,9-1.4,15.7-5.5,19.9c-4.2,4.4-9.8,5.3-13.9,5.3c-0.2,0-0.3,0-0.5,0l-1.2,0l0.8-0.8c3.1-2.8,6.9-7.5,7.6-13.7
			c0.4-3-0.1-6.1-1.2-9.2L83,59.1l0.5-0.2C87.1,57.7,90.7,57.4,93.1,57.4z M83.2,34.1L83,33.6l0.5-0.2c3.6-1.3,7.3-1.6,9.7-1.6
			c2.1,0,3.6,0.2,3.7,0.2l0.4,0.1l0,0.4c0.6,12-2.9,19.9-10.2,23.3l-0.1,0c-1.5,0.3-3,0.7-4.4,1.2l-0.4,0.1l-0.2-0.4
			c-0.5-1-1.1-2-1.8-2.9l-0.2-0.3l0.2-0.3c2.5-3.2,4-6.7,4.4-10.3C84.8,40.1,84.4,37.1,83.2,34.1z M71.9,3.1l0.3-0.2l0.3,0.3
			C84.4,14,83.7,22.9,81,28.5l-0.3,0.7l-0.5-0.7c-1.7-2.4-3.8-4.8-6.4-7.2c-0.2-0.2-0.3-0.3-0.6-0.4l-0.3-0.1l0-3.9c0-0.5-0.5-1-1-1
			s-1,0.5-1,1l0,4.1l-0.3,0.2c-0.4,0.3-3.9,3-6.8,7.1l-0.5,0.7L63,28.2C56.9,14.6,71.7,3.2,71.9,3.1z M62.7,34.4
			c0.1-0.3,0.3-0.7,0.4-1c0.2-0.3,0.3-0.6,0.4-0.9c0.1-0.2,0.2-0.5,0.4-0.7c0.2-0.3,0.4-0.7,0.6-1c2.1-3.3,4.6-5.8,5.9-7l1.6-1.3
			l0.3,0.2c0.2,0.2,0.4,0.3,0.6,0.5v0l0.8,0.8c2.3,2.2,4.2,4.5,5.6,6.8l0.2,0.2l0,0c0.2,0.4,0.4,0.8,0.7,1.1
			c0.1,0.2,0.2,0.3,0.2,0.5l0.1,0.3c0.1,0.2,0.2,0.5,0.3,0.7c0.1,0.3,0.2,0.5,0.3,0.8l0,0l0.2,0.5c2.2,5.7,1.3,11.4-2.4,16.6
			l-0.4,0.5l-0.4-0.5c-1.3-1.5-2.8-3.1-4.4-4.6c-0.2-0.2-0.4-0.3-0.6-0.4l-0.3-0.1l0-6.4c0-0.5-0.5-1-1-1s-1,0.5-1,1l0,6.6l-0.2,0.1
			l-0.4-0.3c0,0,0,0,0,0l0.3,0.4c-0.3,0.2-2.5,1.9-4.9,4.7l-0.4,0.5l-0.3-0.5C61.1,46,60.4,40.3,62.7,34.4z M47.6,32.1l0.1-0.4h2.7
			c3.8,0,7.2,0.5,10.1,1.4l0.5,0.2l-0.2,0.5c-1,2.4-1.5,4.9-1.5,7.3c-0.1,4.3,1.4,8.4,4.4,12.4l0.2,0.3l-0.2,0.3
			c-0.6,0.8-1.1,1.7-1.6,2.6l-0.2,0.3l-0.4-0.1c-0.9-0.3-1.9-0.6-2.9-0.8C45.2,50.3,47.6,32.3,47.6,32.1z M66.2,83.2
			c-6.1-0.3-10.9-2.4-14.1-6.3c-6.2-7.5-4.7-18.7-4.6-19.2l0.1-0.4l0.4,0c0.8-0.1,1.6-0.1,2.4-0.1c2.7,0,5.2,0.2,7.4,0.7l0.2,0.1
			c0.8,0.2,1.7,0.4,2.6,0.7l0.5,0.2l-0.2,0.5c-1,2.5-1.5,4.9-1.6,7.3c-0.1,5.6,2.4,10.9,7.4,15.8l0.9,0.8L66.2,83.2z M70.6,66.5
			l0.1,16.7L70,82.5c-0.2-0.2-0.5-0.4-0.7-0.6l0,0l-0.9-0.7c-6.8-6.5-8.8-13.9-5.7-21.4c0.1-0.2,0.1-0.3,0.2-0.5l0.1-0.2
			c0.1-0.3,0.3-0.6,0.4-0.9c0.1-0.2,0.2-0.4,0.3-0.6l0.1-0.1c0.1-0.3,0.3-0.5,0.4-0.7c0.3-0.4,0.5-0.8,0.8-1.2
			c0.2-0.4,0.5-0.7,0.7-1.1l0.2-0.2c0.3-0.4,0.6-0.7,0.8-1.1c1.3-1.6,2.5-2.8,3.3-3.5l1.1-1c0.3-0.3,0.5-0.4,0.5-0.4l0.3-0.2
			l0.3,0.3c0.5,0.4,0.9,0.9,1.4,1.3c1.2,1.2,2.3,2.4,3.2,3.5c0.3,0.4,0.6,0.8,0.9,1.2l0.2,0.2c0.3,0.4,0.6,0.8,0.8,1.2
			c0.3,0.4,0.5,0.8,0.8,1.2c0.2,0.4,0.4,0.8,0.6,1.1c0.1,0.2,0.2,0.4,0.3,0.6c0.1,0.3,0.3,0.6,0.4,0.9l0.1,0.2
			c0.1,0.2,0.2,0.4,0.3,0.6c3.7,9.6-1.9,16.7-5.5,20.1l-1,0.9l0-0.1c-0.4,0.3-0.8,0.7-1.2,1l-0.7,0.6l-0.1-16.4c0-0.5-0.5-1-1-1
			S70.6,65.9,70.6,66.5z"/>
	</g>
</g>
</svg>
